<svg width="36" height="36" viewBox="0 0 36 36" fill="none" xmlns="http://www.w3.org/2000/svg">
<g id="Group">
<g id="Group_2">
<path id="Vector" d="M33 31.875H3C2.385 31.875 1.875 32.385 1.875 33C1.875 33.615 2.385 34.125 3 34.125H33C33.615 34.125 34.125 33.615 34.125 33C34.125 32.385 33.615 31.875 33 31.875Z" fill="#45B73B"/>
<path id="Vector_2" d="M25.5 3H10.5C6 3 4.5 5.685 4.5 9V33H31.5V9C31.5 5.685 30 3 25.5 3ZM15 25.875H10.5C9.885 25.875 9.375 25.365 9.375 24.75C9.375 24.135 9.885 23.625 10.5 23.625H15C15.615 23.625 16.125 24.135 16.125 24.75C16.125 25.365 15.615 25.875 15 25.875ZM15 19.125H10.5C9.885 19.125 9.375 18.615 9.375 18C9.375 17.385 9.885 16.875 10.5 16.875H15C15.615 16.875 16.125 17.385 16.125 18C16.125 18.615 15.615 19.125 15 19.125ZM15 12.375H10.5C9.885 12.375 9.375 11.865 9.375 11.25C9.375 10.635 9.885 10.125 10.5 10.125H15C15.615 10.125 16.125 10.635 16.125 11.25C16.125 11.865 15.615 12.375 15 12.375ZM25.5 25.875H21C20.385 25.875 19.875 25.365 19.875 24.75C19.875 24.135 20.385 23.625 21 23.625H25.5C26.115 23.625 26.625 24.135 26.625 24.75C26.625 25.365 26.115 25.875 25.5 25.875ZM25.5 19.125H21C20.385 19.125 19.875 18.615 19.875 18C19.875 17.385 20.385 16.875 21 16.875H25.5C26.115 16.875 26.625 17.385 26.625 18C26.625 18.615 26.115 19.125 25.5 19.125ZM25.5 12.375H21C20.385 12.375 19.875 11.865 19.875 11.25C19.875 10.635 20.385 10.125 21 10.125H25.5C26.115 10.125 26.625 10.635 26.625 11.25C26.625 11.865 26.115 12.375 25.5 12.375Z" fill="#45B73B"/>
</g>
</g>
</svg>
