<svg width="36" height="36" viewBox="0 0 36 36" fill="none" xmlns="http://www.w3.org/2000/svg">
<g id="vuesax/bold/home">
<g id="Group">
<path id="Vector" d="M31.2904 12.555L20.8954 4.24496C19.2904 2.95496 16.6954 2.95496 15.1054 4.22996L4.7104 12.555C3.5404 13.485 2.7904 15.45 3.0454 16.92L5.0404 28.86C5.4004 30.99 7.4404 32.715 9.6004 32.715H26.4004C28.5454 32.715 30.6004 30.975 30.9604 28.86L32.9554 16.92C33.1954 15.45 32.4454 13.485 31.2904 12.555ZM18.0004 23.25C15.9304 23.25 14.2504 21.57 14.2504 19.5C14.2504 17.43 15.9304 15.75 18.0004 15.75C20.0704 15.75 21.7504 17.43 21.7504 19.5C21.7504 21.57 20.0704 23.25 18.0004 23.25Z" fill="#45B73B"/>
</g>
</g>
</svg>
