<svg width="157" height="64" viewBox="0 0 157 64" fill="none" xmlns="http://www.w3.org/2000/svg">
<g id="Group">
<path id="Vector" d="M78.3536 20.3635C79.0207 20.3541 79.5878 20.2294 79.5786 19.5437V19.4409C79.5878 18.7583 79.0207 18.6336 78.3536 18.6243C77.6836 18.6336 77.1163 18.7583 77.1257 19.4409V19.5437C77.1163 20.2294 77.6836 20.3541 78.3536 20.3635Z" fill="white"/>
<path id="Vector_2" d="M53.9674 18.9854C53.9674 18.7859 53.8086 18.627 53.609 18.627H51.6174V19.3407H53.609C53.7088 19.3407 53.7929 19.3064 53.8615 19.2379C53.9331 19.1662 53.9674 19.0821 53.9674 18.9854Z" fill="white"/>
<path id="Vector_3" d="M65.1788 18.618L65.7524 19.8554H64.6023L65.1788 18.618Z" fill="white"/>
<path id="Vector_4" d="M90.767 18.618L91.3407 19.8554H90.1904L90.767 18.618Z" fill="white"/>
<path id="Vector_5" d="M50.0244 44.6739L49.1768 42.8448L48.3243 44.6739H50.0244Z" fill="white"/>
<path id="Vector_6" d="M70.0288 44.1484C70.0288 44.7704 69.674 45.2819 69.0475 45.2819H66.4028V43.0151H69.0475C69.674 43.0151 70.0288 43.5219 70.0288 44.1484Z" fill="white"/>
<path id="Vector_7" d="M76.7288 42.8448L77.5765 44.6739H75.8763L76.7288 42.8448Z" fill="white"/>
<path id="Vector_8" d="M87.0304 42.8582C87.3253 42.8582 87.5602 43.0933 87.5602 43.3881C87.5602 43.5309 87.5095 43.6553 87.4036 43.7613C87.3022 43.8627 87.1778 43.9133 87.0304 43.9133H84.0863V42.8582H87.0304Z" fill="white"/>
<path id="Vector_9" d="M96.7705 44.1484C96.7705 44.7704 96.4152 45.2819 95.7884 45.2819H93.1434V43.0151H95.7884C96.4152 43.0151 96.7705 43.5219 96.7705 44.1484Z" fill="white"/>
<path id="Vector_10" d="M38.8301 32.6039L35.7574 25.5096H30.4857V37.3334H34.3265V30.9471L37.0979 37.3334H40.5322L43.3337 30.9471V37.3334H47.1595V25.5096H42.0534L38.8301 32.6039Z" fill="white"/>
<path id="Vector_11" d="M62.8353 37.3334V34.3963H54.3553V32.8599H62.4889V29.9831H54.3553V28.4618H62.7299V25.5096H50.3789V37.3334H62.8353Z" fill="white"/>
<path id="Vector_12" d="M66.0749 35.2394C67.2498 36.7608 69.3433 37.5139 71.8588 37.5139C73.7477 37.5139 75.1324 37.1302 76.097 36.5217C76.2629 36.417 76.4165 36.3056 76.5581 36.1884L76.6636 37.3331H79.9019V30.3292H72.0395V32.8747H76.2419C76.2233 32.9952 76.1591 33.1844 76.0668 33.3646C76.0092 33.4771 75.9405 33.5861 75.8653 33.673C75.4285 34.1851 74.2687 34.6369 72.7625 34.6369C71.196 34.6369 70.1868 34.2303 69.6446 33.5977C69.2831 33.1307 69.0722 32.468 69.0722 31.4739C69.0722 30.4347 69.2831 29.7267 69.6898 29.2598C70.2772 28.5971 71.2713 28.3109 72.7324 28.3109C74.0428 28.3109 74.9465 28.6121 75.3683 28.9887C75.6394 29.2146 75.8503 29.531 75.8954 29.7418H79.7965C79.791 29.6028 79.771 29.4329 79.7375 29.252C79.6801 28.9429 79.5831 28.6014 79.45 28.326C78.5162 26.4281 76.3473 25.2985 72.6571 25.2985C69.4488 25.2985 67.2949 26.2774 66.105 27.7536C65.3218 28.7627 64.9603 30.0279 64.9603 31.4438C64.9603 33.0102 65.3821 34.3508 66.0749 35.2394Z" fill="white"/>
<path id="Vector_13" d="M69.5623 31.4738C69.5623 30.491 69.7632 29.9226 70.058 29.5831C70.5015 29.084 71.3107 28.8006 72.7326 28.8006C73.9969 28.8006 74.7534 29.0961 75.0422 29.354L75.0485 29.3595L75.0549 29.3649C75.1542 29.4477 75.245 29.5496 75.3137 29.649C75.3815 29.7472 75.4087 29.8154 75.4154 29.8393H71.5499V33.3645H75.4847C75.3438 33.5237 75.0413 33.7224 74.5608 33.8821C74.0824 34.041 73.4686 34.147 72.7627 34.147C71.2744 34.147 70.4373 33.7618 70.0247 33.288C69.755 32.9344 69.5623 32.3922 69.5623 31.4738Z" fill="white"/>
<path id="Vector_14" d="M90.135 29.8664L89.0128 32.0088H91.1952L90.135 29.8664Z" fill="white"/>
<path id="Vector_15" fill-rule="evenodd" clip-rule="evenodd" d="M93.2637 35.1494L94.3031 37.3334H98.6562L92.691 25.5096H87.8262L81.5151 37.3334H85.7778L86.8772 35.1494H93.2637ZM88.2027 32.4984L89.6939 29.6518L90.1458 28.5673L90.5675 29.6367L91.9837 32.4984H88.2027Z" fill="white"/>
<path id="Vector_16" fill-rule="evenodd" clip-rule="evenodd" d="M124.694 57.8062H124.687C124.603 57.8062 124.52 57.8057 124.436 57.8049V57.8062H32.3065C24.1767 57.8062 16.9249 54.0468 12.1948 48.1719H25.7688V46.4514H10.923C8.70823 43.1808 7.22419 39.3751 6.70513 35.2686H25.7688V33.5482H6.54568C6.51534 33.0359 6.5 32.5196 6.5 31.9997C6.5 28.5938 7.15975 25.3422 8.35855 22.3653H25.7688V20.6449H9.12589C10.9497 16.9287 13.6406 13.7153 16.9352 11.2686H109.322C110.474 10.4132 111.7 9.65148 112.987 8.99471C112.64 9.1717 112.298 9.3562 111.96 9.54809H19.5732C23.3304 7.41272 27.676 6.1933 32.3064 6.1933H124.436V6.19451C124.522 6.19366 124.608 6.1933 124.694 6.1933C138.946 6.1933 150.5 17.7472 150.5 31.9997C150.5 46.2522 138.946 57.8062 124.694 57.8062ZM134.289 44.1032C135.445 40.6223 136.134 36.4878 136.134 31.9997C136.134 27.8158 135.534 23.939 134.518 20.6126C134.393 20.2064 134.263 19.8085 134.127 19.4192C133.9 18.7708 133.656 18.1465 133.398 17.5482C133.049 16.7403 132.674 15.9798 132.276 15.2718C130.393 11.9313 128.246 10.1323 126.242 9.52657V17.5482H131.512C131.958 18.4995 132.365 19.5353 132.725 20.6449H126.242V30.4513H134.385C134.404 30.9616 134.414 31.4779 134.414 31.9997C134.414 32.5216 134.404 33.0379 134.385 33.5481H126.242V43.3545H132.724C132.365 44.4642 131.958 45.5 131.512 46.4513H126.242V54.473C128.246 53.8674 130.393 52.0683 132.276 48.7277C132.674 48.0197 133.05 47.2592 133.398 46.4513C133.719 45.7075 134.017 44.9235 134.289 44.1032ZM137.752 20.6449C138.579 23.6342 139.089 26.9487 139.205 30.4513H147.351C147.112 26.896 146.053 23.565 144.365 20.6449H137.752ZM142.212 17.5482H136.74C135.747 14.9458 134.494 12.6822 133.046 10.8754C136.643 12.2988 139.789 14.6139 142.212 17.5482ZM123.146 9.52624V17.5482H115.989C116.337 16.7403 116.713 15.9798 117.112 15.2718C118.993 11.9308 121.142 10.1315 123.146 9.52624ZM116.341 10.8753C114.893 12.6821 113.641 14.9457 112.648 17.5482H107.174C109.598 14.6138 112.745 12.2985 116.341 10.8753ZM111.635 20.6449H101.726V22.3653H104.123C102.958 24.8482 102.229 27.5763 102.036 30.4513H110.181C110.298 26.9487 110.808 23.6342 111.635 20.6449ZM123.146 20.6449H114.86C113.975 23.5494 113.409 26.8719 113.281 30.4513H123.146V20.6449ZM139.205 33.5481C139.089 37.0507 138.579 40.3652 137.752 43.3545H144.365C146.053 40.4345 147.112 37.1034 147.351 33.5481H139.205ZM114.86 43.3545C113.975 40.45 113.409 37.1275 113.281 33.5481H123.146V43.3545H114.86ZM111.635 43.3545C110.808 40.3652 110.298 37.0507 110.181 33.5481H102.036C102.275 37.1034 103.333 40.4345 105.022 43.3545H111.635ZM136.74 46.4513C135.747 49.0536 134.494 51.3171 133.047 53.1239C136.643 51.7006 139.789 49.3854 142.212 46.4513H136.74ZM115.989 46.4513H123.146V54.4733C121.142 53.8681 118.993 52.0688 117.112 48.7277C116.713 48.0197 116.337 47.2592 115.989 46.4513ZM112.648 46.4513L101.726 46.4514V48.1718H108.75C110.904 50.2955 113.48 51.992 116.341 53.1241C114.893 51.3174 113.641 49.0537 112.648 46.4513ZM78.3533 17.2963C76.7762 17.2994 75.4858 17.7544 75.4921 19.3409V19.6463C75.4858 21.2296 76.7762 21.6878 78.3533 21.6909C79.9272 21.6878 81.2176 21.2296 81.2113 19.6463V19.3409C81.2113 17.7575 79.9303 17.2963 78.3533 17.2963ZM29.3579 17.3991V21.588H30.9912V17.3991H29.3579ZM35.9437 19.6183L34.1048 17.3991H31.8576V21.588H33.4908V19.0292L35.7411 21.588H37.58V17.3991H35.9437V19.6183ZM41.7221 18.7331V21.5943H40.089V18.7331H38.1472V17.4054H43.6638V18.7331H41.7221ZM44.2125 21.5943H49.1151V20.519H45.8456V19.983H49.1151V19.0136H45.8456V18.4775H49.1151V17.4054H44.2125V21.5943ZM49.9846 21.5911V17.4022H54.0208C54.8841 17.3929 55.6166 18.1191 55.6041 18.9856C55.6041 19.3004 55.5199 19.587 55.3517 19.8427C55.1865 20.0951 54.9652 20.2884 54.6909 20.4162L55.6041 21.5911H53.865L53.0765 20.5689H51.6178V21.5911H49.9846ZM60.1982 19.6183L58.3593 17.3991H56.1122V21.588H57.7454V19.0292L59.9956 21.588H61.8345V17.3991H60.1982V19.6183ZM63.7981 21.5943H61.9592L64.2064 17.4054H66.1481L68.3953 21.5943H66.5564L66.226 20.8774H64.1285L63.7981 21.5943ZM70.8886 21.5943V18.7331H72.8304V17.4054H67.3138V18.7331H69.2556V21.5943H70.8886ZM73.3789 21.588V17.3991H75.0121V21.588H73.3789ZM83.9478 17.3991L85.7868 19.6183V17.3991H87.423V21.588H85.5842L83.3339 19.0292V21.588H81.7007V17.3991H83.9478ZM87.5477 21.5943H89.3865L89.717 20.8774H91.8143L92.1454 21.5943H93.9837L91.7371 17.4054H89.7949L87.5477 21.5943ZM94.1117 21.588V17.3991H95.7448V20.2603H99.0143V21.588H94.1117ZM33.5897 42.4803C32.8387 42.4803 31.9172 42.591 31.9172 43.0839C31.9172 43.3558 32.6682 43.3926 33.6403 43.4386L33.651 43.4392C35.3781 43.5267 37.7961 43.6492 37.7916 45.1986C37.7916 46.9679 35.7643 47.3872 33.5897 47.3872C31.4196 47.3826 29.6181 47.12 29.3877 45.1986H31.9172C32.1936 45.6779 32.834 45.8022 33.5897 45.8022C34.3407 45.8022 35.2622 45.6779 35.2622 45.1986C35.2622 44.9268 34.5112 44.8854 33.539 44.8393L33.5282 44.8388C31.8011 44.7513 29.3831 44.6288 29.3877 43.0839C29.3877 41.3147 31.415 40.8908 33.5897 40.8908C35.7597 40.9046 37.5612 41.1488 37.7916 43.0839H35.2622C34.9856 42.5955 34.3453 42.4803 33.5897 42.4803ZM43.1499 43.0148V47.2443H40.7357V43.0148H37.8653V41.0521H46.0203V43.0148H43.1499ZM44.4169 47.2443H47.1353L47.6237 46.1847H50.7245L51.2128 47.2443H53.9312L50.6093 41.0521H47.7389L44.4169 47.2443ZM57.442 41.0428L60.1604 44.3233V41.0428H62.5792V47.2352H59.8609L56.5343 43.4525V47.2352H54.1201V41.0428H57.442ZM63.989 41.0521V47.2443H69.4995C71.1996 47.2674 72.4621 45.8299 72.4482 44.1481C72.4621 42.4573 71.1996 41.029 69.4995 41.0521H63.989ZM74.6874 47.2443H71.969L75.291 41.0521H78.1614L81.4832 47.2443H78.7648L78.2765 46.1847H75.1758L74.6874 47.2443ZM81.6721 41.0475V47.2398H84.0864V45.7285H86.2427L87.4083 47.2398H89.9792L88.6292 45.5027C89.0347 45.3138 89.3618 45.0283 89.606 44.655C89.8548 44.2772 89.9792 43.8533 89.9792 43.388C89.9976 42.1071 88.9149 41.0337 87.6387 41.0475H81.6721ZM90.7302 47.2443V41.0521H96.2403C97.9407 41.029 99.203 42.4573 99.1898 44.1481C99.203 45.8299 97.9407 47.2674 96.2403 47.2443H90.7302ZM47.6493 37.8228H42.8438V33.2826L40.8521 37.8228H36.7765L34.8163 33.3059V37.8228H29.9958V25.0194H36.0791L38.8408 31.3958L41.7379 25.0194H47.6493V37.8228ZM63.3251 37.8228H49.889V25.0194H63.2197V28.9512H54.8451V29.4929H62.9787V33.3494H54.8451V33.906H63.3251V37.8228ZM80.3921 37.8228H76.2171L76.147 37.0627C75.1004 37.6571 73.6836 38.0036 71.859 38.0036C69.2635 38.0036 66.9922 37.2273 65.6882 35.5398C64.9125 34.5444 64.4708 33.0893 64.4708 31.4437C64.4708 29.9444 64.8543 28.5664 65.7183 27.4532L65.7211 27.4496L65.724 27.4461C67.0364 25.8179 69.3556 24.8086 72.6574 24.8086C76.4311 24.8086 78.8362 25.9683 79.8898 28.1096L79.8907 28.1113L79.8915 28.1129C80.1364 28.6203 80.269 29.2907 80.2862 29.7221L80.2909 29.8393H80.3921V37.8228ZM87.1796 35.6388L86.0802 37.8228H80.6991L87.533 25.0194H92.9939L99.4524 37.8228H93.9936L92.9553 35.6388H87.1796ZM29.2957 53.5911H99.4027V51.8706H29.2957V53.5911Z" fill="white"/>
<path id="Vector_17" fill-rule="evenodd" clip-rule="evenodd" d="M32.3064 0H124.694C142.367 0 156.694 14.3268 156.694 32C156.694 49.6732 142.367 64 124.694 64H32.3064C14.6332 64 0.306396 49.6732 0.306396 32C0.306396 14.3268 14.6332 0 32.3064 0ZM32.3064 3.09683C16.3436 3.09683 3.40322 16.0372 3.40322 32C3.40322 47.9628 16.3436 60.9033 32.3064 60.9033H124.694C140.656 60.9033 153.596 47.9628 153.596 32C153.596 16.0372 140.656 3.09683 124.694 3.09683H32.3064Z" fill="white"/>
</g>
</svg>
