<svg width="36" height="36" viewBox="0 0 36 36" fill="none" xmlns="http://www.w3.org/2000/svg">
<g id="Group">
<g id="Group_2">
<path id="Vector" d="M24.285 3H11.715C6.255 3 3 6.255 3 11.715V24.27C3 29.745 6.255 33 11.715 33H24.27C29.73 33 32.985 29.745 32.985 24.285V11.715C33 6.255 29.745 3 24.285 3ZM15.735 25.08C15.225 25.59 14.55 25.935 13.725 26.04L11.7 26.265C10.59 26.385 9.645 25.44 9.765 24.315L9.99 22.275C10.185 20.46 11.7 19.305 13.305 19.275C13.455 19.26 13.635 19.275 13.8 19.29C14.505 19.38 15.18 19.71 15.75 20.265C16.305 20.82 16.62 21.48 16.71 22.155C16.725 22.32 16.74 22.485 16.74 22.635C16.74 23.565 16.395 24.42 15.735 25.08ZM26.16 11.325C25.08 14.025 22.605 17.565 20.25 19.875C19.905 17.745 18.21 16.065 16.05 15.765C18.36 13.395 21.93 10.89 24.645 9.795C25.125 9.615 25.605 9.75 25.905 10.05C26.205 10.38 26.355 10.845 26.16 11.325Z" fill="#45B73B"/>
</g>
</g>
</svg>
