<svg width="36" height="36" viewBox="0 0 36 36" fill="none" xmlns="http://www.w3.org/2000/svg">
<g id="Group">
<g id="Group_2">
<path id="Vector" d="M24.285 3H11.715C6.255 3 3 6.255 3 11.715V24.285C3 29.745 6.255 33 11.715 33H24.285C29.745 33 33 29.745 33 24.285V11.715C33 6.255 29.745 3 24.285 3ZM14.955 22.35L11.58 25.725C11.355 25.95 11.07 26.055 10.785 26.055C10.5 26.055 10.2 25.95 9.99 25.725L8.865 24.6C8.415 24.165 8.415 23.445 8.865 23.01C9.3 22.575 10.005 22.575 10.455 23.01L10.785 23.34L13.365 20.76C13.8 20.325 14.505 20.325 14.955 20.76C15.39 21.195 15.39 21.915 14.955 22.35ZM14.955 11.85L11.58 15.225C11.355 15.45 11.07 15.555 10.785 15.555C10.5 15.555 10.2 15.45 9.99 15.225L8.865 14.1C8.415 13.665 8.415 12.945 8.865 12.51C9.3 12.075 10.005 12.075 10.455 12.51L10.785 12.84L13.365 10.26C13.8 9.825 14.505 9.825 14.955 10.26C15.39 10.695 15.39 11.415 14.955 11.85ZM26.34 24.93H18.465C17.85 24.93 17.34 24.42 17.34 23.805C17.34 23.19 17.85 22.68 18.465 22.68H26.34C26.97 22.68 27.465 23.19 27.465 23.805C27.465 24.42 26.97 24.93 26.34 24.93ZM26.34 14.43H18.465C17.85 14.43 17.34 13.92 17.34 13.305C17.34 12.69 17.85 12.18 18.465 12.18H26.34C26.97 12.18 27.465 12.69 27.465 13.305C27.465 13.92 26.97 14.43 26.34 14.43Z" fill="#45B73B"/>
</g>
</g>
</svg>
