<svg width="136" height="64" viewBox="0 0 136 64" fill="none" xmlns="http://www.w3.org/2000/svg">
<g id="Group">
<path id="Vector" d="M7.63843 12.6476C6.76298 10.4226 7.14304 7.86435 7.94945 5.71271C8.7979 3.44863 10.2753 1.19074 12.4834 0C12.5929 2.3859 11.8641 4.74314 11.0677 6.86873C10.3516 8.78059 9.47285 10.8174 8.0218 12.3986C7.79883 13.5966 7.62796 14.7914 7.5078 15.9806C7.98873 14.7243 8.76855 13.5791 9.74156 12.6583C10.9943 11.4727 12.8578 10.5578 14.607 11.0988C14.0947 13.0325 12.9268 14.886 11.5437 16.1863C10.4551 17.2098 9.01797 18.5212 7.32521 18.5728C7.25548 20.3229 7.29489 22.057 7.4389 23.7675C7.67771 22.5157 8.18936 21.337 8.92867 20.4592C9.94427 19.253 11.4501 17.7793 13.3733 18.0259C13.2683 19.9829 12.4876 21.9881 11.4005 23.4948C10.5367 24.6921 9.39623 26.2182 7.77748 26.6124C8.03668 28.2932 8.39772 29.9461 8.85577 31.5635C8.86018 30.3251 9.13372 29.1095 9.67638 28.1346C10.4412 26.7597 11.6323 25.0452 13.5577 24.9111C13.8399 26.8311 13.4575 28.93 12.6861 30.5993C12.0696 31.9336 11.2476 33.6352 9.74928 34.3392C10.3785 36.0794 11.123 37.7709 11.9767 39.4036C11.677 37.9964 11.689 36.5135 12.0437 35.1793C12.5324 33.3399 13.7458 31.4078 15.6937 30.8471C16.3823 32.8777 16.2874 35.144 15.8874 37.208C15.5581 38.9074 14.9113 40.9033 13.4614 42.0072C14.4093 43.5369 15.458 45.0051 16.6016 46.402C15.9871 45.032 15.6818 43.5336 15.8456 42.1618C16.0843 40.1634 16.6458 38.0256 18.6871 36.9601C19.8452 38.9582 20.1135 41.1998 20.2119 43.4139C20.2914 45.2038 20.0335 47.4115 18.7904 48.8677C20.1578 50.2894 21.6333 51.62 23.2092 52.847C22.1918 51.5419 21.4794 50.0103 21.3285 48.4958C21.1154 46.3558 21.2196 44.0001 23.1186 42.4297C24.7428 44.1261 25.7119 46.6243 26.1869 48.7941C26.607 50.7126 27.0454 52.9833 26.0454 54.8713C28.051 56.1804 30.192 57.3338 32.4557 58.3105C30.8628 57.1755 29.5589 55.6182 28.9377 54.0103C28.1237 51.9026 27.6202 49.3912 29.2059 47.2803C31.3304 48.6411 32.8918 50.9628 34.122 53.0803C35.1775 54.8972 36.2702 57.4049 35.7281 59.5688C36.9814 59.9941 38.2671 60.3675 39.5835 60.6861L39.5052 61.0093C38.1838 60.6894 36.8932 60.3147 35.6348 59.8882C34.7531 62.4937 31.8649 63.3544 29.5292 63.7344C26.2011 64.2758 22.2384 63.2268 19.3972 61.1134C20.8967 58.9942 23.9563 58.7792 26.2634 58.617L26.2935 58.6149C28.8209 58.4373 31.5545 58.6746 34.0961 59.335C31.1599 58.2173 28.4126 56.8119 25.8792 55.1598L25.8419 55.2188C24.4537 57.4698 21.6665 57.5576 19.4787 57.4152C16.5101 57.222 13.0827 55.417 11.099 52.9218C12.9649 51.2847 15.7208 51.7429 17.8561 52.0979L17.8665 52.0995C20.2497 52.4957 22.8541 53.36 25.0401 54.6908C24.8319 54.5268 24.6281 54.3533 24.4301 54.1714C22.3046 52.656 20.344 50.9609 18.5648 49.1127C18.5442 49.1334 18.5232 49.1539 18.5021 49.1743C16.7722 50.9146 14.2526 50.4589 12.2863 49.8925C9.65503 49.1346 6.92614 46.8481 5.6184 44.2231C7.64491 43.0876 10.0677 44.0233 11.9523 44.7634C14.0207 45.5757 16.2091 46.8752 17.8918 48.5317C17.7183 48.3129 17.5528 48.0843 17.3964 47.8477C15.8324 46.0824 14.4254 44.1922 13.1885 42.1981L13.1265 42.2369C11.1694 43.4999 8.9521 42.5853 7.19471 41.6859C4.81198 40.4665 2.89723 37.7865 2.06986 35.1509C4.18361 34.4739 6.27199 35.8027 7.89543 36.8551C9.67101 38.006 11.4696 39.6475 12.7041 41.53C12.6135 41.3445 12.529 41.1549 12.4511 40.9617C11.2649 38.8922 10.2572 36.7196 9.44143 34.4659L9.3994 34.4802L9.39596 34.4814C7.61652 35.1579 5.63493 34.1062 4.34304 32.9528C2.54749 31.3499 1.28191 28.8856 0.985226 26.4781C2.84045 26.2377 4.58833 27.6731 5.78335 28.8973C7.15888 30.3063 8.39345 31.9717 9.15246 33.8214C9.09706 33.6205 9.04952 33.4164 9.00956 33.2102C8.3189 31.0924 7.79567 28.9082 7.45075 26.6753L7.42388 26.6786L7.41478 26.6801C5.53351 26.9941 3.79418 25.5639 2.75501 24.1758C1.29707 22.228 0.545501 19.5322 0.733876 17.0888C2.60784 17.2198 4.03478 19.0026 4.96012 20.4447C6.03111 22.1142 6.91925 24.0036 7.30826 25.9802C7.29641 25.8229 7.28938 25.6648 7.2869 25.5061C7.00124 23.2335 6.8994 20.9143 6.99256 18.5664L6.98718 18.5662C5.07449 18.4973 3.66092 16.7214 2.93113 15.1462C1.88686 12.892 1.71875 10.0427 2.41575 7.64138C4.23873 8.15304 5.25501 10.2442 5.85487 11.8538C6.54649 13.7098 7.02921 15.7339 7.03307 17.7464C7.13256 16.058 7.33293 14.3563 7.63843 12.6476Z" fill="#FFC200"/>
<path id="Vector_2" d="M45.3096 8.48206V16.5432C45.3096 20.0887 42.0986 21.7945 37.2318 21.7945C32.6828 21.7945 29.4216 20.1055 29.4216 16.1251V8.48206H33.9539V16.1251C33.9539 17.5467 35.1747 18.433 37.4158 18.433C39.5565 18.433 40.8276 17.5132 40.8276 16.1418V8.48206H45.3096Z" fill="white"/>
<path id="Vector_3" d="M60.404 18.1152V21.6106H47.8776V8.48206H52.4099V18.1152H60.404Z" fill="white"/>
<path id="Vector_4" d="M73.8739 11.7768V8.48206H58.2032V11.7768H63.739V21.6106H68.3215V11.7768H73.8739Z" fill="white"/>
<path id="Vector_5" fill-rule="evenodd" clip-rule="evenodd" d="M89.9497 9.82011C90.5519 10.4388 90.8372 11.2918 90.8372 12.4791C90.8372 13.4994 90.5864 14.3691 90.1675 14.9543C89.6989 15.5899 88.9796 16.1251 88.0935 16.2589L92.0581 21.6106H87.0738L83.812 16.9779H79.7485V21.6106H75.2831V8.48206H85.7358C87.8097 8.48206 89.1643 8.98379 89.9497 9.82011ZM86.3379 13.5831C86.4551 13.3823 86.4882 13.1147 86.4882 12.8974C86.4882 12.6464 86.4551 12.3788 86.3379 12.2117C86.1037 11.7768 85.6352 11.6598 84.9324 11.6598H79.7652V14.0513H85.0164C85.7358 14.0513 86.1712 13.9175 86.3379 13.5831Z" fill="white"/>
<path id="Vector_6" fill-rule="evenodd" clip-rule="evenodd" d="M98.0913 19.1857H105.183L106.336 21.6106H111.17L104.547 8.48206H99.1455L92.1383 21.6106H96.8704L98.0913 19.1857ZM103.761 16.2421H99.5631L101.219 13.0813L101.721 11.8771L102.19 13.0645L103.761 16.2421Z" fill="white"/>
<path id="Vector_7" fill-rule="evenodd" clip-rule="evenodd" d="M89.4718 24.083C86.6662 24.083 85.1903 25.4128 85.1903 27.3668C85.1903 29.5723 86.7392 30.6912 89.4718 30.6912C92.48 30.6912 93.745 29.3939 93.745 27.3668C93.745 25.3074 92.3174 24.083 89.4718 24.083ZM89.4718 29.0615C87.8747 29.0615 87.4117 28.4047 87.4117 27.3912C87.4117 26.3939 87.9147 25.7372 89.4635 25.7372C91.1585 25.7372 91.5388 26.475 91.5388 27.3912C91.5388 28.3642 91.0772 29.0615 89.4718 29.0615Z" fill="white"/>
<path id="Vector_8" d="M81.0319 30.5943V26.824H76.7994V28.1943H79.0616C79.0455 28.2998 78.9643 28.5025 78.8589 28.624C78.6238 28.8998 77.9994 29.143 77.1886 29.143C76.3454 29.143 75.8021 28.924 75.5103 28.5835C75.3157 28.3321 75.2022 27.9754 75.2022 27.4403C75.2022 26.8808 75.3157 26.4998 75.5345 26.2484C75.8508 25.8917 76.3859 25.7376 77.1724 25.7376C77.8779 25.7376 78.3643 25.8997 78.5914 26.1024C78.7373 26.2241 78.8507 26.3944 78.8751 26.5078H80.9751C80.9671 26.3051 80.9022 25.9808 80.7886 25.7457C80.2859 24.7241 79.1183 24.116 77.1319 24.116C75.4049 24.116 74.2454 24.6429 73.6049 25.4376C73.1832 25.9808 72.9886 26.6619 72.9886 27.424C72.9886 28.2674 73.2156 28.9889 73.5886 29.4674C74.221 30.2863 75.3481 30.6916 76.7021 30.6916C77.8941 30.6916 78.7129 30.4079 79.2319 29.9782L79.2887 30.5943H81.0319Z" fill="white"/>
<path id="Vector_9" d="M58.9444 26.7429C60.5903 26.9212 61.2957 27.5051 61.2957 28.6159C61.2957 29.9618 59.9822 30.6915 57.3957 30.6915C54.9876 30.6915 53.9498 30.0105 53.5524 29.1186C53.4632 28.9078 53.4227 28.6483 53.3983 28.4861H55.7335C55.7498 28.5834 55.8065 28.7293 55.8876 28.8266C56.0821 29.0619 56.6254 29.1997 57.5497 29.1997C58.7417 29.1997 59.0255 29.0293 59.0255 28.7132C59.0255 28.3726 58.7336 28.2997 57.6551 28.1861C57.2255 28.1456 56.5443 28.0807 56.2606 28.0565C54.2012 27.8699 53.439 27.2294 53.439 26.1348C53.439 24.9996 54.7849 24.1321 57.2416 24.1321C59.4227 24.1321 60.4363 24.7808 60.8579 25.5916C60.9876 25.8348 61.0686 26.1104 61.093 26.305H58.7578C58.7497 26.2158 58.7173 26.1267 58.6282 26.0131C58.4497 25.778 57.9957 25.624 57.1848 25.624C56.0416 25.624 55.7416 25.7618 55.7416 26.0537C55.7416 26.378 56.1228 26.4511 57.3957 26.5889C57.8902 26.6294 58.6768 26.7104 58.9444 26.7429Z" fill="white"/>
<path id="Vector_10" fill-rule="evenodd" clip-rule="evenodd" d="M35.6664 24.7729C36.0961 25.1134 36.3393 25.6891 36.3393 26.5242C36.3393 27.2054 36.1691 27.7161 35.8447 28.0728C35.4069 28.5755 34.6853 28.8026 33.7448 28.8108C33.4528 28.8189 30.9555 28.8108 30.9555 28.8108V30.5945H28.7744V24.2297H33.7123C34.588 24.2297 35.2529 24.408 35.6664 24.7729ZM34.0529 27.0188C34.1177 26.9054 34.1502 26.7593 34.1502 26.5566C34.1502 26.3459 34.1095 26.1674 34.0366 26.0702C33.8988 25.8674 33.6394 25.7702 33.2177 25.7702H30.9393V27.3269H33.2014C33.6555 27.3269 33.9231 27.2215 34.0529 27.0188Z" fill="white"/>
<path id="Vector_11" fill-rule="evenodd" clip-rule="evenodd" d="M44.3181 24.8783C44.6101 25.1783 44.7479 25.5918 44.7479 26.1674C44.7479 26.662 44.6262 27.0837 44.4235 27.3674C44.1966 27.6755 43.8479 27.935 43.4181 27.9999L45.3398 30.5945H42.9236L41.3424 28.3486H39.3721V30.5945H37.2073V24.2297H42.2749C43.2803 24.2297 43.9371 24.4729 44.3181 24.8783ZM42.5668 26.7027C42.6236 26.6054 42.6397 26.4756 42.6397 26.3702C42.6397 26.2486 42.6236 26.1188 42.5668 26.0378C42.4533 25.8269 42.2263 25.7702 41.8858 25.7702H39.3803V26.9296H41.9263C42.2749 26.9296 42.4858 26.8647 42.5668 26.7027Z" fill="white"/>
<path id="Vector_12" d="M52.7413 30.5945V29.0135H48.1765V28.1864H52.5549V26.6378H48.1765V25.8188H52.6846V24.2297H46.0359V30.5945H52.7413Z" fill="white"/>
<path id="Vector_13" d="M69.1864 25.8269V24.2297H61.5891V25.8269H64.2728V30.5945H66.4944V25.8269H69.1864Z" fill="white"/>
<path id="Vector_14" d="M72.1071 24.2297V30.5945H69.8773V24.2297H72.1071Z" fill="white"/>
<path id="Vector_15" d="M84.3099 24.2297V30.5945H82.0797V24.2297H84.3099Z" fill="white"/>
<path id="Vector_16" d="M102.348 24.2297V28.1377C102.348 29.8567 100.791 30.6838 98.4314 30.6838C96.2266 30.6838 94.6447 29.8648 94.6447 27.935V24.2297H96.8426V27.935C96.8426 28.6242 97.4338 29.054 98.521 29.054C99.5587 29.054 100.175 28.608 100.175 27.9432V24.2297H102.348Z" fill="white"/>
<path id="Vector_17" d="M111.101 28.6159C111.101 27.5051 110.395 26.9212 108.75 26.7429C108.481 26.7104 107.696 26.6294 107.201 26.5889C105.928 26.4511 105.546 26.378 105.546 26.0537C105.546 25.7618 105.847 25.624 106.99 25.624C107.801 25.624 108.255 25.778 108.433 26.0131C108.523 26.1267 108.554 26.2158 108.563 26.305H110.898C110.874 26.1104 110.792 25.8348 110.663 25.5916C110.241 24.7808 109.228 24.1321 107.047 24.1321C104.59 24.1321 103.243 24.9996 103.243 26.1348C103.243 27.2294 104.007 27.8699 106.066 28.0565L106.198 28.0682L106.418 28.0883L107.46 28.1861C108.539 28.2997 108.83 28.3726 108.83 28.7132C108.83 29.0293 108.547 29.1997 107.355 29.1997C106.431 29.1997 105.888 29.0619 105.692 28.8266C105.612 28.7293 105.554 28.5834 105.539 28.4861H103.203C103.228 28.6483 103.268 28.9078 103.358 29.1186C103.755 30.0105 104.792 30.6915 107.201 30.6915C109.788 30.6915 111.101 29.9618 111.101 28.6159Z" fill="white"/>
<path id="Vector_18" fill-rule="evenodd" clip-rule="evenodd" d="M54.4016 33.0314C52.5784 33.0314 51.6193 33.8957 51.6193 35.1656C51.6193 36.5989 52.6258 37.3261 54.4016 37.3261C56.3568 37.3261 57.1787 36.483 57.1787 35.1656C57.1787 33.8272 56.2513 33.0314 54.4016 33.0314ZM54.4016 36.267C53.3636 36.267 53.0632 35.84 53.0632 35.1814C53.0632 34.5333 53.3899 34.1064 54.3964 34.1064C55.4977 34.1064 55.7455 34.5859 55.7455 35.1814C55.7455 35.8137 55.4451 36.267 54.4016 36.267Z" fill="white"/>
<path id="Vector_19" d="M44.2623 35.9771C44.2623 35.2551 43.8039 34.8756 42.7341 34.7597C42.5602 34.7387 42.0491 34.686 41.7276 34.6597C40.9003 34.57 40.6526 34.5226 40.6526 34.3119C40.6526 34.1221 40.8476 34.0326 41.5906 34.0326C42.1176 34.0326 42.4126 34.1326 42.5287 34.2854C42.5865 34.3593 42.6076 34.4172 42.613 34.4752H44.1306C44.1148 34.3487 44.0621 34.1695 43.9778 34.0115C43.7037 33.4845 43.045 33.063 41.6274 33.063C40.0309 33.063 39.1561 33.6267 39.1561 34.3645C39.1561 35.076 39.6514 35.4923 40.9898 35.6134C41.1743 35.6293 41.617 35.6714 41.8963 35.6978C42.5971 35.7715 42.7868 35.819 42.7868 36.0403C42.7868 36.2458 42.6024 36.3565 41.8278 36.3565C41.227 36.3565 40.8739 36.2669 40.7474 36.1141C40.6948 36.0508 40.6579 35.956 40.6474 35.8927H39.1296C39.1455 35.9982 39.1718 36.1667 39.2298 36.3038C39.4881 36.8834 40.1626 37.326 41.7276 37.326C43.4087 37.326 44.2623 36.8518 44.2623 35.9771Z" fill="white"/>
<path id="Vector_20" fill-rule="evenodd" clip-rule="evenodd" d="M33.7409 36.0931C33.7409 36.3777 33.6618 36.657 33.5037 36.8414C33.2613 37.1365 32.8081 37.2629 32.2233 37.2629H28.5503V33.1262H32.1231C32.6922 33.1262 33.0559 33.2633 33.2561 33.4688C33.4352 33.6479 33.5143 33.8851 33.5143 34.1538C33.5143 34.4227 33.4511 34.644 33.3141 34.8073C33.2033 34.9444 33.0137 35.0497 32.8135 35.0761C33.1085 35.1129 33.3878 35.2605 33.5459 35.466C33.6776 35.6188 33.7409 35.8507 33.7409 36.0931ZM31.965 34.644C32.0177 34.586 32.0494 34.5016 32.0494 34.4016C32.0494 34.3014 32.0177 34.2171 31.9492 34.1592C31.8754 34.0906 31.7383 34.0642 31.5381 34.0642H29.9309V34.7388H31.575C31.7542 34.7388 31.8913 34.7125 31.965 34.644ZM31.7279 36.325C31.9755 36.325 32.1231 36.2933 32.2074 36.2144C32.2601 36.1616 32.2811 36.0826 32.2811 35.9824C32.2811 35.877 32.2548 35.7981 32.1916 35.7348C32.1126 35.6663 31.9755 35.6346 31.7437 35.6346H29.9309V36.325H31.7279Z" fill="white"/>
<path id="Vector_21" d="M38.703 36.2354V37.2629H34.345V33.1262H38.666V34.1592H35.7361V34.6914H38.5817V35.6979H35.7361V36.2354H38.703Z" fill="white"/>
<path id="Vector_22" d="M49.3902 33.1262V34.1644H47.6407V37.2629H46.1969V34.1644H44.4526V33.1262H49.3902Z" fill="white"/>
<path id="Vector_23" d="M62.0009 33.1262V34.1749H59.1922V34.7599H61.8692V35.7981H59.1922V37.2629H57.7747V33.1262H62.0009Z" fill="white"/>
<path id="Vector_24" d="M69.1414 34.1644V33.1262H64.2039V34.1644H65.9482V37.2629H67.392V34.1644H69.1414Z" fill="white"/>
<path id="Vector_25" d="M74.5283 33.1262V37.2629H73.1159V35.7611H70.9975V37.2629H69.5853V33.1262H70.9975V34.6334H73.1159V33.1262H74.5283Z" fill="white"/>
<path id="Vector_26" d="M79.7225 37.2629V36.2354H76.7556V35.6979H79.6012V34.6914H76.7556V34.1592H79.6856V33.1262H75.3645V37.2629H79.7225Z" fill="white"/>
<path id="Vector_27" d="M88.4589 33.1262H89.8231L88.3114 37.2629H86.7625C86.7625 37.2629 85.9343 34.7916 85.9288 34.7229C85.9247 34.7916 85.091 37.2629 85.091 37.2629H83.5476L81.9983 33.1262H83.5311C83.5311 33.1262 84.4282 35.7294 84.4282 35.7927C84.4282 35.7294 85.255 33.1262 85.255 33.1262H86.7363C86.7363 33.1262 87.5687 35.7294 87.5687 35.7927C87.5687 35.7294 88.4589 33.1262 88.4589 33.1262Z" fill="white"/>
<path id="Vector_28" fill-rule="evenodd" clip-rule="evenodd" d="M92.5298 33.0314C90.7067 33.0314 89.7476 33.8957 89.7476 35.1656C89.7476 36.5989 90.7535 37.3261 92.5298 37.3261C94.4852 37.3261 95.3065 36.483 95.3065 35.1656C95.3065 33.8272 94.3791 33.0314 92.5298 33.0314ZM92.5298 36.267C91.4921 36.267 91.1917 35.84 91.1917 35.1814C91.1917 34.5333 91.5183 34.1064 92.5243 34.1064C93.6267 34.1064 93.8733 34.5859 93.8733 35.1814C93.8733 35.8137 93.5729 36.267 92.5298 36.267Z" fill="white"/>
<path id="Vector_29" fill-rule="evenodd" clip-rule="evenodd" d="M100.525 33.5479C100.714 33.7429 100.803 34.0116 100.803 34.3857C100.803 34.7072 100.725 34.9812 100.592 35.1657C100.445 35.3659 100.219 35.5346 99.9392 35.5766L101.188 37.2629H99.6181L98.5901 35.8033H97.3099V37.2629H95.903V33.1262H99.1964C99.8496 33.1262 100.277 33.2844 100.525 33.5479ZM99.3866 34.7335C99.4224 34.6703 99.4334 34.586 99.4334 34.5175C99.4334 34.4384 99.4224 34.3542 99.3866 34.3014C99.3122 34.1644 99.1647 34.1275 98.9429 34.1275H97.3154V34.8811H98.969C99.1964 34.8811 99.3328 34.839 99.3866 34.7335Z" fill="white"/>
<path id="Vector_30" d="M105.588 37.2629V36.1616H103.069V33.1262H101.641V37.2629H105.588Z" fill="white"/>
<path id="Vector_31" fill-rule="evenodd" clip-rule="evenodd" d="M111.176 35.1181C111.176 35.7611 111.112 36.1089 110.923 36.4357C110.638 36.9572 110.075 37.2629 109.078 37.2629H106.149V33.1262H109.047C110.037 33.1262 110.623 33.4055 110.912 33.8851C111.118 34.2066 111.176 34.549 111.176 35.1181ZM108.81 36.2459C109.257 36.2459 109.511 36.1405 109.664 35.9087C109.759 35.7664 109.785 35.4344 109.785 35.1446C109.78 34.8811 109.748 34.6018 109.664 34.4753C109.5 34.2277 109.253 34.1381 108.821 34.1381H107.561V36.2459H108.81Z" fill="white"/>
<path id="Vector_32" d="M54.6477 57.3815H52.4641C52.4641 57.3815 51.0392 61.5466 51.0392 61.6477C51.0392 61.5466 49.7071 57.3815 49.7071 57.3815H47.3379C47.3379 57.3815 46.0142 61.5466 46.0142 61.6477C46.0142 61.5466 44.5809 57.3815 44.5809 57.3815H42.1273L44.6061 64H47.0765C47.0765 64 48.4086 60.0458 48.417 59.9362C48.4255 60.0458 49.7491 64 49.7491 64H52.2279L54.6477 57.3815Z" fill="white"/>
<path id="Vector_33" d="M57.636 64V57.3815H55.3174V64H57.636Z" fill="white"/>
<path id="Vector_34" d="M66.6546 57.3815V64H64.3949L61.1153 60.3156V64H58.9401V57.3815H61.3176L64.4961 60.9817V57.3815H66.6546Z" fill="white"/>
<path id="Vector_35" d="M75.6864 64V57.3815H73.528V60.9817L70.3494 57.3815H67.9718V64H70.147V60.3156L73.4268 64H75.6864Z" fill="white"/>
<path id="Vector_36" d="M83.9776 62.3559V64H77.0043V57.3815H83.9183V59.034H79.2302V59.8857H83.7833V61.496H79.2302V62.3559H83.9776Z" fill="white"/>
<path id="Vector_37" fill-rule="evenodd" clip-rule="evenodd" d="M92.8893 59.3966C92.8893 58.798 92.7459 58.3681 92.4428 58.0561C92.0459 57.6345 91.3638 57.3815 90.3179 57.3815H85.0483V64H87.3V61.6645H89.3491L90.9931 64H93.5052L91.5071 61.3021C91.9536 61.2346 92.316 60.9648 92.553 60.6444C92.7625 60.3494 92.8893 59.9109 92.8893 59.3966ZM90.6968 59.6074C90.6968 59.717 90.6803 59.8519 90.621 59.953C90.537 60.1217 90.3179 60.1891 89.9555 60.1891H87.3083V58.9835H89.9127C90.2669 58.9835 90.5039 59.0425 90.621 59.2617C90.6803 59.346 90.6968 59.4809 90.6968 59.6074Z" fill="white"/>
<path id="Vector_38" d="M47.9156 45.7043L47.0013 42.8901L46.0868 45.7043H43.1278L45.5217 47.4435L44.6074 50.2577L47.0013 48.5185L49.395 50.2577L48.4807 47.4435L50.8746 45.7043H47.9156Z" fill="#FFC200"/>
<path id="Vector_39" d="M57.5573 42.8888L58.4903 45.703H61.5097L59.067 47.4423L60.0001 50.2564L57.5573 48.5172L55.1146 50.2564L56.0477 47.4423L53.6049 45.703H56.6242L57.5573 42.8888Z" fill="#FFC200"/>
<path id="Vector_40" d="M68.9628 45.703L68.0298 42.8888L67.0968 45.703H64.0773L66.5201 47.4423L65.587 50.2564L68.0298 48.5172L70.4725 50.2564L69.5395 47.4423L71.9823 45.703H68.9628Z" fill="#FFC200"/>
<path id="Vector_41" d="M78.5021 42.8888L79.4352 45.703H82.4545L80.0119 47.4423L80.9449 50.2564L78.5021 48.5172L76.0594 50.2564L76.9925 47.4423L74.5497 45.703H77.5692L78.5021 42.8888Z" fill="#FFC200"/>
<path id="Vector_42" d="M89.9735 45.703L89.0585 42.8888L88.1435 45.703H85.1849L87.5786 47.4423L86.6649 50.2564L89.0585 48.5172L91.4522 50.2564L90.5385 47.4423L92.9322 45.703H89.9735Z" fill="#FFC200"/>
<path id="Vector_43" d="M128.362 12.7084C129.237 10.4836 128.857 7.92503 128.051 5.77339C127.202 3.50945 125.725 1.25129 123.517 0.0605469C123.407 2.44658 124.136 4.80368 124.932 6.92928C125.649 8.841 126.527 10.8777 127.978 12.4587C128.201 13.6565 128.372 14.8509 128.492 16.0399C128.011 14.7841 127.232 13.6395 126.259 12.719C125.007 11.5332 123.142 10.6185 121.394 11.1595C121.906 13.093 123.073 14.9467 124.457 16.247C125.546 17.2705 126.983 18.5818 128.675 18.6335C128.745 20.3837 128.705 22.1179 128.561 23.8286C128.322 22.5768 127.811 21.398 127.071 20.5203C126.055 19.3139 124.549 17.8404 122.627 18.0869C122.732 20.044 123.513 22.0492 124.6 23.5559C125.463 24.7532 126.604 26.2794 128.223 26.6737C127.964 28.3541 127.603 30.0068 127.144 31.624C127.14 30.3858 126.867 29.1702 126.324 28.1953C125.559 26.8205 124.367 25.1059 122.442 24.9718C122.16 26.8918 122.543 28.9907 123.315 30.66C123.93 31.9943 124.753 33.6959 126.251 34.3999C125.621 36.1404 124.877 37.8323 124.023 39.4651C124.323 38.0576 124.311 36.5744 123.957 35.2398C123.467 33.4004 122.255 31.4682 120.306 30.9076C119.617 32.9385 119.712 35.2045 120.113 37.2685C120.443 38.968 121.089 40.964 122.539 42.0679C121.591 43.5985 120.542 45.0673 119.397 46.4649C120.013 45.0943 120.317 43.5952 120.153 42.2228C119.915 40.2241 119.354 38.0864 117.313 37.0212C116.154 39.0193 115.886 41.2609 115.788 43.475C115.708 45.265 115.966 47.4729 117.21 48.9292C115.842 50.3505 114.367 51.6807 112.792 52.9074C113.809 51.6023 114.521 50.0709 114.672 48.5564C114.885 46.4165 114.782 44.0609 112.882 42.4904C111.258 44.1867 110.288 46.6849 109.814 48.8548C109.394 50.7731 108.956 53.0439 109.955 54.932C107.95 56.2414 105.808 57.3949 103.544 58.3719C105.137 57.2367 106.441 55.6791 107.062 54.071C107.877 51.9634 108.38 49.4519 106.795 47.341C104.67 48.7018 103.109 51.0234 101.878 53.141C100.823 54.958 99.7297 57.4659 100.273 59.6298C99.0187 60.055 97.733 60.4285 96.417 60.7471L96.4955 61.0702C97.8157 60.7504 99.1069 60.3757 100.365 59.9492C101.247 62.5545 104.135 63.4155 106.471 63.7954C109.799 64.3368 113.762 63.2879 116.604 61.1744C115.103 59.0551 112.044 58.8402 109.737 58.678L109.707 58.6759C107.179 58.4983 104.445 58.7356 101.904 59.3961C104.839 58.2783 107.587 56.8728 110.121 55.2205L110.156 55.2756C111.543 57.5304 114.333 57.6185 116.521 57.4761C119.491 57.2829 122.918 55.4778 124.901 52.9826C123.035 51.3458 120.28 51.8037 118.144 52.1586L118.133 52.1605C115.751 52.5565 113.148 53.4204 110.962 54.7508C111.17 54.5869 111.373 54.4137 111.571 54.2319C113.696 52.7168 115.655 51.022 117.435 49.1741C117.459 49.1987 117.484 49.223 117.509 49.2471C119.24 50.9739 121.752 50.5183 123.714 49.9532C126.346 49.1953 129.075 46.9087 130.382 44.2838C128.355 43.1483 125.933 44.0838 124.049 44.8241C121.978 45.6371 119.788 46.9381 118.104 48.5968C118.278 48.3777 118.445 48.1487 118.602 47.9117C120.166 46.1455 121.574 44.2541 122.812 42.2588L122.865 42.292L122.879 42.3006C124.834 43.5591 127.05 42.6453 128.806 41.7465C131.189 40.5271 133.104 37.8472 133.931 35.2116C131.817 34.5346 129.729 35.8634 128.106 36.9158C126.328 38.0674 124.529 39.71 123.294 41.5939C123.385 41.408 123.47 41.2178 123.549 41.0242C124.735 38.954 125.743 36.7809 126.558 34.5266L126.601 34.5409L126.608 34.5436C128.387 35.2171 130.367 34.1661 131.658 33.0135C133.453 31.4106 134.719 28.9463 135.015 26.5387C133.16 26.2984 131.412 27.7338 130.217 28.9579C128.842 30.3678 127.606 32.0343 126.846 33.8855C126.903 33.6835 126.951 33.4783 126.991 33.2709C127.681 31.1532 128.205 28.9692 128.55 26.7365L128.602 26.7434C130.476 27.0468 132.21 25.6207 133.246 24.2365C134.704 22.2887 135.455 19.5928 135.266 17.1493C133.393 17.2805 131.966 19.0631 131.041 20.5054C129.969 22.1757 129.08 24.0662 128.692 26.044C128.704 25.8858 128.711 25.7268 128.714 25.5672C128.999 23.2945 129.101 20.9751 129.007 18.6273C130.921 18.5602 132.339 16.7831 133.07 15.2072C134.113 12.9531 134.281 10.1037 133.585 7.70248C131.762 8.21414 130.745 10.305 130.145 11.9147C129.454 13.7706 128.971 15.795 128.967 17.8075C128.868 16.1191 128.667 14.4173 128.362 12.7084Z" fill="#FFC200"/>
</g>
</svg>
