<svg width="84" height="74" viewBox="0 0 84 74" fill="none" xmlns="http://www.w3.org/2000/svg">
<g id="Group">
<path id="Vector" d="M17.2234 64.8916H21.1021C21.0603 65.2822 20.9765 66.0496 20.6974 66.5938C19.8184 68.4772 17.7954 69.5237 13.9586 69.5237C10.8891 69.5237 8.89391 68.7563 7.81961 67.4588C7.08013 66.5938 6.70337 65.3939 6.70337 63.8592C6.70337 62.464 7.05224 61.3059 7.74978 60.4548C8.86601 59.0596 10.8751 58.2225 14.0283 58.2225C18.3255 58.2225 20.1114 59.7572 20.7673 61.3897C20.9904 61.9616 21.0603 62.6035 21.0742 62.9523H17.1955C17.1814 62.7011 17.0838 62.3802 16.9164 62.143C16.5118 61.5571 15.6188 61.1245 13.9865 61.1245C12.5076 61.1245 11.4333 61.5012 10.9448 62.2686C10.6938 62.6453 10.5961 63.2034 10.5961 63.901C10.5961 64.6544 10.7217 65.1707 10.9868 65.5473C11.531 66.3565 12.7448 66.6635 14.0004 66.6635C15.4653 66.6635 16.5117 66.3705 16.9722 65.7008C17.1397 65.4636 17.2094 65.1846 17.2234 64.8916Z" fill="#45B73B"/>
<path id="Vector_2" d="M33.0827 66.4401V69.3561H22.6326V58.4037H26.4136V66.4401H33.0827Z" fill="#45B73B"/>
<path id="Vector_3" d="M46.1068 69.3561V66.6354H38.2518V65.2124H45.786V62.5475H38.2518V61.1384H46.0092V58.4037H34.5685V69.3561H46.1068Z" fill="#45B73B"/>
<path id="Vector_4" fill-rule="evenodd" clip-rule="evenodd" d="M57.6038 67.3331H51.6882L50.6696 69.3561H46.7212L52.5672 58.4037H57.0736L62.5988 69.3561H58.5666L57.6038 67.3331ZM52.9159 64.8775H56.4182L55.1065 62.2266L54.7158 61.2359L54.2973 62.2405L52.9159 64.8775Z" fill="#45B73B"/>
<path id="Vector_5" fill-rule="evenodd" clip-rule="evenodd" d="M76.6201 61.7383C76.6201 60.7476 76.383 60.0361 75.8802 59.5199C75.2248 58.8222 74.0941 58.4037 72.365 58.4037H63.6442V69.3561H67.3701V65.4914H70.7601L73.4804 69.3561H77.6388L74.3323 64.8915C75.0711 64.7798 75.6716 64.3334 76.0613 63.8031C76.4104 63.3148 76.6201 62.5893 76.6201 61.7383ZM72.9919 62.0871C72.9919 62.2684 72.9644 62.4917 72.8667 62.6591C72.7273 62.9382 72.365 63.0498 71.7645 63.0498H67.3832V61.0546H71.6943C72.2805 61.0546 72.6713 61.1523 72.8667 61.515C72.9644 61.6545 72.9919 61.8778 72.9919 62.0871Z" fill="#45B73B"/>
<path id="Vector_6" d="M56.0471 8.52223C56.0471 8.7037 56.0197 8.92688 55.922 9.09429C55.7825 9.37335 55.4192 9.485 54.8194 9.485H50.4385V7.48987H54.7496C55.3357 7.48987 55.7265 7.58746 55.922 7.95028C56.0197 8.08981 56.0471 8.31299 56.0471 8.52223Z" fill="#45B73B"/>
<path id="Vector_7" d="M66.9548 11.3125H70.4568L69.1449 8.66156L68.7541 7.67102L68.3359 8.67561L66.9548 11.3125Z" fill="#45B73B"/>
<path id="Vector_8" fill-rule="evenodd" clip-rule="evenodd" d="M0.329372 8.49636C0.781114 4.04832 4.53765 0.577209 9.10492 0.577209H74.8954C79.7674 0.577209 83.7161 4.52652 83.7161 9.39831V64.6017C83.7161 69.4735 79.7674 73.4228 74.8954 73.4228H9.10492C4.23313 73.4228 0.283813 69.4735 0.283813 64.6017V9.39831C0.283813 9.09378 0.299292 8.79299 0.329372 8.49636ZM2.12152 25.2496L31.7696 35.2768C32.5773 34.4573 33.6764 33.7449 34.9986 33.1899C35.3026 33.0622 35.6163 32.9439 35.9384 32.8349L23.5776 20.2933H33.2533L38.6851 32.1685C39.4024 32.056 40.1398 31.9843 40.8873 31.9556C41.1359 31.9461 41.3846 31.9412 41.6328 31.9412V20.2933H50.012L44.5802 32.1687C45.417 32.3001 46.2293 32.4875 47.0006 32.729C47.9934 33.0399 48.897 33.4336 49.6853 33.8954L72.9051 20.2933H81.8784V25.0011L47.8893 36.4964C47.1749 35.7714 46.1095 35.187 44.8278 34.8167C43.5462 34.4465 42.106 34.3072 40.6892 34.4164C39.2725 34.5257 37.943 34.8786 36.8686 35.4305C35.7943 35.9824 35.0234 36.7086 34.6535 37.5171C34.2837 38.3257 34.3314 39.1803 34.7908 39.973C35.2501 40.7656 36.1004 41.4609 37.234 41.9705C38.3677 42.4799 39.7339 42.7811 41.1598 42.8358C41.9521 42.8663 42.7432 42.8199 43.5021 42.7007C44.1086 42.6055 44.6952 42.4638 45.2448 42.2778L56.5095 53.7068H48.537L44.5797 45.0566C42.6468 45.36 40.6138 45.3593 38.6851 45.0567L34.7284 53.7068H26.7561L35.9383 44.3903C35.0786 44.0995 34.2851 43.7434 33.5795 43.3301L15.8658 53.7068H2.12152V51.9756L31.7695 41.9484C31.0874 41.2562 30.6199 40.4948 30.3958 39.6993C30.1307 38.7591 30.2136 37.7999 30.6318 36.8859L2.12152 32.4109V25.2496ZM81.8784 52.2241L41.6328 38.6125L81.8784 44.9297V52.2241ZM81.8784 55.5445H2.12152V64.6017C2.12152 68.4585 5.24804 71.585 9.10492 71.585H74.8954C78.7519 71.585 81.8784 68.4585 81.8784 64.6017V55.5445ZM21.694 11.5639V4.83895H17.9548V11.2289C17.9548 12.3731 16.8944 13.1404 15.1086 13.1404C13.239 13.1404 12.2205 12.4009 12.2205 11.215V4.83895H8.43943V11.215C8.43943 14.5356 11.1602 15.9448 14.9552 15.9448C19.0152 15.9448 21.694 14.5217 21.694 11.5639ZM34.2867 15.7914V12.8753H27.6176V4.83895H23.8365V15.7914H34.2867ZM45.5235 4.83895V7.5875H40.8914V15.7914H37.0685V7.5875H32.4504V4.83895H45.5235ZM59.6745 8.1735C59.6745 7.18296 59.4373 6.47137 58.9356 5.95508C58.2803 5.25754 57.1495 4.83895 55.4194 4.83895H46.6995V15.7914H50.4247V11.9266H53.8151L56.5359 15.7914H60.6932L57.3867 11.3266C58.1266 11.215 58.726 10.7685 59.1168 10.2384C59.4659 9.75015 59.6745 9.02462 59.6745 8.1735ZM71.6426 13.7682H65.7266L64.7089 15.7914H60.7602L66.6059 4.83895H71.1124L76.6376 15.7914H72.6054L71.6426 13.7682Z" fill="#45B73B"/>
</g>
</svg>
