<svg width="92" height="74" viewBox="0 0 92 74" fill="none" xmlns="http://www.w3.org/2000/svg">
<g id="Group">
<path id="Vector" d="M29.7158 25.407C29.7158 25.2105 29.7158 22.3506 29.7158 22.3506H28.0163C28.0163 22.3506 28.0163 25.1661 28.0163 25.255C28.0163 25.7749 27.5345 26.1236 26.7228 26.1236C25.8731 26.1236 25.4102 25.7875 25.4102 25.2485C25.4102 25.1598 25.4102 22.3506 25.4102 22.3506H23.6917C23.6917 22.3506 23.6917 25.0202 23.6917 25.2485C23.6917 26.7577 24.9282 27.3982 26.653 27.3982C28.4983 27.3982 29.7158 26.7514 29.7158 25.407Z" fill="#F8C83C"/>
<path id="Vector_2" d="M35.4388 27.3284V26.0032H32.4077V22.3506H30.6892V27.3284H35.4388Z" fill="#F8C83C"/>
<path id="Vector_3" d="M40.5463 23.5999V22.3506H34.6046V23.5999H36.7035V27.3284H38.441V23.5999H40.5463Z" fill="#F8C83C"/>
<path id="Vector_4" d="M42.8307 27.3284V22.3506H41.0869V27.3284H42.8307Z" fill="#F8C83C"/>
<path id="Vector_5" d="M50.8311 27.3284V22.3506H48.6814L47.3244 25.3374L46.0309 22.3506H43.8114V27.3284H45.4284V24.6398L46.5952 27.3284H48.041L49.2204 24.6398V27.3284H50.8311Z" fill="#F8C83C"/>
<path id="Vector_6" d="M53.5249 26.4089H56.2136L56.6512 27.3284H58.4838L55.9726 22.3506H53.9244L51.2675 27.3284H53.062L53.5249 26.4089ZM55.6746 25.2929H54.083L54.7107 24.0944L54.901 23.6379L55.0786 24.0881L55.6746 25.2929Z" fill="#F8C83C"/>
<path id="Vector_7" d="M63.8731 23.5999V22.3506H57.9316V23.5999H60.0305V27.3284H61.7681V23.5999H63.8731Z" fill="#F8C83C"/>
<path id="Vector_8" d="M69.6515 27.3284V26.0919H66.0826V25.4451H69.5057V24.2339H66.0826V23.5934H69.6076V22.3506H64.4084V27.3284H69.6515Z" fill="#F8C83C"/>
<path id="Vector_9" d="M36.6511 29.9746H35.0086C35.0086 29.9746 33.937 33.1071 33.937 33.1832C33.937 33.1071 32.935 29.9746 32.935 29.9746H31.1532C31.1532 29.9746 30.1576 33.1071 30.1576 33.1832C30.1576 33.1071 29.0796 29.9746 29.0796 29.9746H27.2343L29.0987 34.9525H30.9566C30.9566 34.9525 31.9585 31.9784 31.9648 31.896C31.9712 31.9784 32.9668 34.9525 32.9668 34.9525H34.831L36.6511 29.9746Z" fill="#F8C83C"/>
<path id="Vector_10" d="M38.8985 34.9525V29.9746H37.1547V34.9525H38.8985Z" fill="#F8C83C"/>
<path id="Vector_11" d="M45.6813 34.9525V29.9746H44.058V32.6823L41.6673 29.9746H39.879V34.9525H41.5151V32.1813L43.9819 34.9525H45.6813Z" fill="#F8C83C"/>
<path id="Vector_12" d="M52.4748 34.9525V29.9746H50.8514V32.6823L48.4608 29.9746H46.6726V34.9525H48.3086V32.1813L50.7753 34.9525H52.4748Z" fill="#F8C83C"/>
<path id="Vector_13" d="M58.7103 34.9525V33.7159H55.1402V33.0691H58.5644V31.858H55.1402V31.2175H58.6659V29.9746H53.4661V34.9525H58.7103Z" fill="#F8C83C"/>
<path id="Vector_14" d="M65.4131 31.4901C65.4131 31.04 65.3048 30.7165 65.0765 30.4819C64.7785 30.1649 64.2652 29.9746 63.4784 29.9746H59.5156V34.9525H61.2087V33.196H62.7497L63.9866 34.9525H65.8761L64.3735 32.9232C64.7089 32.8725 64.9823 32.6696 65.159 32.4287C65.3177 32.2067 65.4131 31.8769 65.4131 31.4901ZM63.7647 31.6486C63.7647 31.7312 63.7518 31.8326 63.7067 31.9087C63.6435 32.0355 63.4784 32.0863 63.2063 32.0863H61.2151V31.1794H63.174C63.441 31.1794 63.619 31.2238 63.7067 31.3887C63.7518 31.4521 63.7647 31.5536 63.7647 31.6486Z" fill="#F8C83C"/>
<path id="Vector_15" d="M30.4307 39.8499C30.4307 39.7685 30.4307 37.4174 30.4307 37.4174H29.837C29.837 37.4174 29.837 39.7588 29.837 39.8115C29.837 40.3765 29.3055 40.6974 28.5393 40.6974C27.6344 40.6974 27.189 40.3526 27.189 39.8068C27.189 39.754 27.189 37.4174 27.189 37.4174H26.5906C26.5906 37.4174 26.5906 39.6966 26.5906 39.7876C26.5906 40.7835 27.3663 41.224 28.5155 41.224C29.7029 41.224 30.4307 40.7548 30.4307 39.8499Z" fill="#F8C83C"/>
<path id="Vector_16" d="M34.6905 41.1762V40.6255H32.1001V37.4174H31.5016V41.1762H34.6905Z" fill="#F8C83C"/>
<path id="Vector_17" d="M38.0917 37.9633V37.4174H34.0983V37.9633H35.7933V41.1762H36.3967V37.9633H38.0917Z" fill="#F8C83C"/>
<path id="Vector_18" d="M42.3474 38.4803C42.3474 38.2122 42.2899 38.0159 42.1894 37.8579C42.0122 37.5945 41.6722 37.4174 41.1072 37.4174H38.6748V41.1762H39.2637V39.5912H40.9779L42.0265 41.1762H42.716L41.5812 39.4906C41.8685 39.4572 42.0935 39.2943 42.2132 39.0837C42.2995 38.94 42.3474 38.7294 42.3474 38.4803ZM41.7536 38.5282C41.7536 38.6336 41.7297 38.7629 41.6866 38.8491C41.61 38.9879 41.4328 39.0597 41.1455 39.0645H39.2685C39.2685 39.0549 39.2685 37.9537 39.2685 37.9537H41.0354C41.3945 37.9537 41.586 38.0399 41.6866 38.2026C41.7297 38.2793 41.7536 38.4085 41.7536 38.5282Z" fill="#F8C83C"/>
<path id="Vector_19" d="M44.051 40.2472H46.3925L46.8713 41.1762H47.5129L45.6071 37.4174H44.9033L42.9353 41.1762H43.5625L44.051 40.2472ZM46.1434 39.7157H44.3096L45.0708 38.2745L45.2385 37.925L45.406 38.2745L46.1434 39.7157Z" fill="#F8C83C"/>
<path id="Vector_20" d="M53.5857 40.8171C53.7341 40.6446 53.8012 40.4005 53.8012 40.1371C53.8012 39.8882 53.7293 39.6391 53.5809 39.4859C53.4324 39.3423 53.193 39.2226 52.9297 39.1986C53.0829 39.1746 53.2026 39.0789 53.284 38.9783C53.4133 38.8299 53.4898 38.5905 53.4898 38.3511C53.4898 38.0973 53.4133 37.8674 53.2504 37.7094C53.0733 37.5323 52.7717 37.4174 52.3503 37.4174H49.822V41.1762H52.5371C53.0446 41.1762 53.3989 41.0469 53.5857 40.8171ZM52.8721 38.4708C52.8721 38.6383 52.8195 38.7868 52.7286 38.873C52.6375 38.9736 52.4843 39.0166 52.3215 39.0166H50.4062V37.9345H52.2114C52.4317 37.9345 52.5992 37.9776 52.7141 38.083C52.8147 38.1787 52.8721 38.3176 52.8721 38.4708ZM53.0637 40.4531C52.944 40.5872 52.7381 40.6543 52.4364 40.6543H50.4062V39.5386H52.4509C52.7286 39.5386 52.9201 39.596 53.035 39.7062C53.1403 39.8068 53.1835 39.936 53.1835 40.0845C53.1835 40.2377 53.15 40.3669 53.0637 40.4531Z" fill="#F8C83C"/>
<path id="Vector_21" d="M58.1481 41.1762V40.6255H55.2273V39.5529H58.0332V39.0071H55.2273V37.9633H58.1146V37.4174H54.6431V41.1762H58.1481Z" fill="#F8C83C"/>
<path id="Vector_22" d="M62.826 40.0652C62.826 39.4523 62.4197 39.1363 61.4188 39.0213C61.2507 38.9975 60.8867 38.9592 60.6904 38.9352C59.7615 38.825 59.4791 38.7006 59.4791 38.3798C59.4791 38.0686 59.7903 37.8914 60.7287 37.8914C61.4562 37.8914 61.8302 38.035 62.0173 38.2935C62.0701 38.3654 62.0985 38.4516 62.1127 38.5186H62.7537C62.7357 38.4084 62.6918 38.2552 62.6247 38.1307C62.3668 37.6855 61.8354 37.3646 60.7287 37.3646C59.4072 37.3598 58.8614 37.8387 58.8614 38.4324C58.8614 39.0261 59.2875 39.3278 60.3937 39.4572C60.5852 39.481 60.925 39.5193 61.0927 39.5386C61.9502 39.6438 62.2185 39.7732 62.2185 40.1323C62.2185 40.4627 61.9115 40.7021 60.9298 40.7021C60.1255 40.7021 59.6945 40.5584 59.5221 40.2807C59.4695 40.2041 59.436 40.0844 59.4312 40.003H58.7991C58.8135 40.1753 58.8614 40.3621 58.9475 40.5106C59.1966 40.9655 59.7807 41.2288 60.9107 41.2288C62.261 41.2288 62.826 40.793 62.826 40.0652Z" fill="#F8C83C"/>
<path id="Vector_23" d="M67.1202 37.9633V37.4174H63.127V37.9633H64.8217V41.1762H65.4254V37.9633H67.1202Z" fill="#F8C83C"/>
<path id="Vector_24" d="M24.8955 44.4432C24.8955 44.0601 24.8189 43.8015 24.6895 43.6052C24.5077 43.3226 24.1532 43.1743 23.5356 43.1743H21.1606V46.933H21.7543V45.7072C21.7543 45.7072 23.4303 45.7072 23.5117 45.7072C24.0911 45.7024 24.4885 45.5684 24.6992 45.2619C24.8332 45.0752 24.8955 44.807 24.8955 44.4432ZM24.2921 44.4432C24.2921 44.6346 24.2729 44.7783 24.2108 44.8741C24.1006 45.0512 23.8755 45.1613 23.4111 45.1613C23.368 45.1613 21.7543 45.1613 21.7543 45.1613V43.7106H23.4303C23.866 43.7106 24.0911 43.811 24.2108 44.0073C24.2682 44.0935 24.2921 44.2516 24.2921 44.4432Z" fill="#F8C83C"/>
<path id="Vector_25" d="M29.2296 46.933V46.3824H26.3088V45.3098H29.1147V44.7639H26.3088V43.7201H29.1961V43.1743H25.7246V46.933H29.2296Z" fill="#F8C83C"/>
<path id="Vector_26" d="M33.7968 44.2372C33.7968 43.969 33.7394 43.7727 33.6388 43.6147C33.4616 43.3513 33.1218 43.1743 32.5567 43.1743H30.1243V46.933H30.7132V45.3481H32.4275L33.4761 46.933H34.1656L33.0307 45.2475C33.3181 45.2141 33.5431 45.0512 33.6628 44.8405C33.749 44.6969 33.7968 44.4862 33.7968 44.2372ZM33.2031 44.285C33.2031 44.3904 33.1792 44.5198 33.1361 44.6059C33.0595 44.7447 32.8822 44.8166 32.595 44.8213H30.718C30.718 44.8118 30.718 43.7106 30.718 43.7106H32.4849C32.8439 43.7106 33.0355 43.7967 33.1361 43.9595C33.1792 44.0361 33.2031 44.1653 33.2031 44.285Z" fill="#F8C83C"/>
<path id="Vector_27" d="M38.2365 43.7201V43.1743H34.8943V46.933H35.488V45.3338H38.1121V44.7735H35.488V43.7201H38.2365Z" fill="#F8C83C"/>
<path id="Vector_28" d="M40.9619 43.1072C40.1622 43.1072 39.6116 43.3035 39.2189 43.7153C38.8886 44.0361 38.7449 44.4815 38.7449 45.0416C38.7449 45.6545 38.9316 46.1142 39.2764 46.4254C39.6452 46.7942 40.2101 46.9856 40.9619 46.9856C41.7376 46.9856 42.3408 46.7942 42.7 46.4062C43.0113 46.0902 43.174 45.6402 43.174 45.0368C43.174 44.4527 43.0351 44.0073 42.7048 43.6913C42.3265 43.2987 41.7615 43.1072 40.9619 43.1072ZM40.9619 46.4494C40.4352 46.4494 40.0616 46.3345 39.7792 46.1047C39.4919 45.8701 39.353 45.5108 39.353 45.0512C39.353 44.6202 39.4727 44.2612 39.7025 44.0456C39.9659 43.7967 40.3681 43.6482 40.9571 43.6482C41.5651 43.6482 41.9434 43.7919 42.2259 44.0409C42.4654 44.2516 42.5707 44.625 42.5707 45.0464C42.5707 45.4725 42.4607 45.8365 42.2164 46.0567C41.9339 46.3201 41.5365 46.4494 40.9619 46.4494Z" fill="#F8C83C"/>
<path id="Vector_29" d="M47.6666 44.2372C47.6666 43.969 47.6091 43.7727 47.5086 43.6147C47.3314 43.3513 46.9914 43.1743 46.4264 43.1743H43.994V46.933H44.5829V45.3481H46.2971L47.3458 46.933H48.0352L46.9005 45.2475C47.1877 45.2141 47.4128 45.0512 47.5325 44.8405C47.6187 44.6969 47.6666 44.4862 47.6666 44.2372ZM47.0728 44.285C47.0728 44.3904 47.0489 44.5198 47.0058 44.6059C46.9292 44.7447 46.752 44.8166 46.4648 44.8213H44.5877C44.5877 44.8118 44.5877 43.7106 44.5877 43.7106H46.3546C46.7137 43.7106 46.9052 43.7967 47.0058 43.9595C47.0489 44.0361 47.0728 44.1653 47.0728 44.285Z" fill="#F8C83C"/>
<path id="Vector_30" d="M53.3937 46.933V43.1743H52.618L51.0714 46.2675L49.5534 43.1743H48.7634V46.933H49.3333V44.0409L50.7505 46.933H51.373L52.8238 44.0409V46.933H53.3937Z" fill="#F8C83C"/>
<path id="Vector_31" d="M55.0748 46.0041H57.4163L57.8951 46.933H58.5367L56.6309 43.1743H55.9271L53.9591 46.933H54.5863L55.0748 46.0041ZM57.1672 45.4726H55.3334L56.0946 44.0313L56.2623 43.6818L56.4298 44.0313L57.1672 45.4726Z" fill="#F8C83C"/>
<path id="Vector_32" d="M62.8503 46.933V43.1743H62.2802V46.095L59.7909 43.1743H59.1157V46.933H59.6951V43.993L62.2041 46.933H62.8503Z" fill="#F8C83C"/>
<path id="Vector_33" d="M68.0159 45.5301H67.393C67.3736 45.7024 67.3066 45.8748 67.1866 46.0041C66.9286 46.3057 66.5172 46.435 65.8852 46.435C65.3538 46.435 64.7837 46.2865 64.5103 45.8987C64.3671 45.7168 64.2755 45.4487 64.2755 45.0464C64.2755 44.6873 64.3387 44.4192 64.4767 44.2372C64.7063 43.8685 65.19 43.677 65.871 43.677C66.5314 43.677 66.948 43.8589 67.1685 44.1127C67.2924 44.2467 67.3646 44.4048 67.3878 44.5915H68.0108C67.9914 44.3809 67.9244 44.1318 67.7812 43.9212C67.4742 43.4663 66.9093 43.1072 65.8749 43.1072C64.8895 43.1072 64.3 43.4232 63.9737 43.8972C63.7635 44.1701 63.6577 44.5532 63.6577 45.0416C63.6577 45.5875 63.788 45.9897 64.0124 46.2722C64.3387 46.7176 64.9656 46.9856 65.9136 46.9856C66.8861 46.9856 67.4652 46.6936 67.7528 46.2291C67.9153 46.0041 67.9966 45.7359 68.0159 45.5301Z" fill="#F8C83C"/>
<path id="Vector_34" d="M72.3013 46.933V46.3824H69.3799V45.3098H72.1865V44.7639H69.3799V43.7201H72.2678V43.1743H68.7957V46.933H72.3013Z" fill="#F8C83C"/>
<path id="Vector_35" d="M28.5105 50.667L29.2266 52.871H31.544L29.6693 54.2332L30.3854 56.437L28.5105 55.075L26.6357 56.437L27.3519 54.2332L25.4771 52.871H27.7944L28.5105 50.667Z" fill="#F8C83C"/>
<path id="Vector_36" d="M36.778 50.6671L37.5087 52.871H39.8734L37.9604 54.2331L38.691 56.4372L36.778 55.075L34.865 56.4372L35.5956 54.2331L33.6826 52.871H36.0473L36.778 50.6671Z" fill="#F8C83C"/>
<path id="Vector_37" d="M44.9797 50.6671L45.7105 52.871H48.0751L46.162 54.2331L46.8928 56.4372L44.9797 55.075L43.0666 56.4372L43.7973 54.2331L41.8843 52.871H44.249L44.9797 50.6671Z" fill="#F8C83C"/>
<path id="Vector_38" d="M53.1813 50.6671L53.912 52.871H56.2767L54.3637 54.2331L55.0944 56.4372L53.1813 55.075L51.2683 56.4372L51.999 54.2331L50.0859 52.871H52.4507L53.1813 50.6671Z" fill="#F8C83C"/>
<path id="Vector_39" d="M61.4484 50.6671L62.1642 52.871H64.482L62.6066 54.2331L63.3225 56.4372L61.4484 55.075L59.5734 56.4372L60.2896 54.2331L58.4148 52.871H60.7322L61.4484 50.6671Z" fill="#F8C83C"/>
<path id="Vector_40" d="M32.5274 13.4832L33.0689 15.1496H34.8211L33.4036 16.1795L33.945 17.8458L32.5274 16.816L31.1099 17.8458L31.6514 16.1795L30.2339 15.1496H31.9861L32.5274 13.4832Z" fill="#F8C83C"/>
<path id="Vector_41" d="M38.7783 13.4808L39.3309 15.1473H41.1187L39.6723 16.1772L40.2247 17.8435L38.7783 16.8135L37.3318 17.8435L37.8844 16.1772L36.4379 15.1473H38.2258L38.7783 13.4808Z" fill="#F8C83C"/>
<path id="Vector_42" d="M44.9791 13.4808L45.5316 15.1473H47.3195L45.8731 16.1772L46.4255 17.8435L44.9791 16.8135L43.5326 17.8435L44.0852 16.1772L42.6387 15.1473H44.4266L44.9791 13.4808Z" fill="#F8C83C"/>
<path id="Vector_43" d="M51.1813 13.4808L51.7337 15.1473H53.5216L52.0752 16.1772L52.6277 17.8435L51.1813 16.8135L49.7348 17.8435L50.2873 16.1772L48.8408 15.1473H50.6287L51.1813 13.4808Z" fill="#F8C83C"/>
<path id="Vector_44" d="M57.431 13.4808L57.9724 15.1473H59.7246L58.3071 16.1772L58.8486 17.8435L57.431 16.8135L56.0135 17.8435L56.5549 16.1772L55.1375 15.1473H56.8895L57.431 13.4808Z" fill="#F8C83C"/>
<path id="Vector_45" fill-rule="evenodd" clip-rule="evenodd" d="M7.57056 43.4764C5.18108 28.5265 12.1548 13.7353 26.1157 7.38354L26.2445 7.66679C12.4241 13.9546 5.50804 28.601 7.87779 43.4272C10.4996 59.83 23.7321 69.6673 39.9365 70.1416L39.9274 70.4527C23.5967 69.9747 10.2193 60.0484 7.57056 43.4764Z" fill="#F8C83C"/>
<path id="Vector_46" d="M23.0884 11.1989C20.5084 11.2578 17.4889 12.7126 15.7072 14.8259C17.136 16.1527 19.4349 15.6622 21.0894 15.3908C23.4506 15.0036 25.9616 14.2534 28.1897 13.1916C27.2736 11.2414 24.8057 11.1599 23.0884 11.1989Z" fill="#F8C83C"/>
<path id="Vector_47" d="M21.0593 8.01621C19.5311 10.3967 17.7099 12.7625 15.728 14.846C14.0699 13.2894 15.0707 10.6991 15.7475 9.08829C16.9735 6.16947 19.9128 3.65243 22.9857 2.36456C23.8291 4.2834 21.9972 6.55512 21.0593 8.01621Z" fill="#F8C83C"/>
<path id="Vector_48" d="M15.6224 17.8743C13.2066 18.733 11.1307 21.1504 10.0884 23.5772C11.8255 24.3849 13.8003 23.2185 15.245 22.442C17.2287 21.3756 19.2525 19.9042 20.8449 18.2014C19.4061 16.6833 17.2215 17.306 15.6224 17.8743Z" fill="#F8C83C"/>
<path id="Vector_49" d="M12.6943 15.4956C12.1655 18.2107 11.2789 21.0248 10.1145 23.5896C8.08198 22.6311 8.15937 19.8856 8.24643 18.1384C8.39502 15.1563 10.0634 11.7556 12.3862 9.59442C13.8082 11.119 13.0312 13.7661 12.6943 15.4956Z" fill="#F8C83C"/>
<path id="Vector_50" d="M10.9741 26.4925C8.96112 28.0805 7.74097 31.0234 7.45837 33.6514C9.36263 33.87 10.8847 32.137 12.0173 30.9481C13.5593 29.3293 15.0189 27.2989 15.9459 25.1747C14.1306 24.1844 12.2853 25.4581 10.9741 26.4925Z" fill="#F8C83C"/>
<path id="Vector_51" d="M7.48657 25.1518C7.84552 27.8935 7.8463 30.8597 7.48722 33.6549C5.27263 33.3829 4.53809 30.7239 4.1042 29.0558C3.35509 26.1764 3.85733 22.4571 5.31661 19.658C7.14026 20.6675 7.25724 23.3993 7.48657 25.1518Z" fill="#F8C83C"/>
<path id="Vector_52" d="M9.39422 35.8996C7.80131 38.2329 7.24115 41.8896 7.95751 44.8288C10.0625 44.3305 11.1059 41.9473 11.9438 40.2642C13.0572 38.0273 13.9984 35.4177 14.3353 32.8573C12.0522 32.3821 10.4435 34.3624 9.39422 35.8996Z" fill="#F8C83C"/>
<path id="Vector_53" d="M5.21277 35.6637C6.45382 38.537 7.42233 41.6995 7.98907 44.8218C5.57495 45.3404 3.83746 42.8055 2.82807 41.1246C1.03099 38.1325 0.507459 33.9847 1.16577 30.4052C3.37533 30.8483 4.45657 33.9135 5.21277 35.6637Z" fill="#F8C83C"/>
<path id="Vector_54" d="M10.5086 46.0518C9.65329 48.8823 10.2478 52.7305 11.9794 55.3916C13.8824 54.1526 14.1458 51.4257 14.4155 49.4705C14.7711 46.8904 14.9385 44.0322 14.4967 41.3568C12.0628 41.6675 11.0798 44.1608 10.5086 46.0518Z" fill="#F8C83C"/>
<path id="Vector_55" d="M6.27899 47.2634C8.41439 49.7136 10.3842 52.5073 12.0087 55.3732C9.80543 56.7486 7.22003 54.8695 5.65202 53.5397C2.87031 51.1808 1.06408 47.1715 0.635864 43.3916C2.9508 43.0805 4.99087 45.7852 6.27899 47.2634Z" fill="#F8C83C"/>
<path id="Vector_56" d="M14.9964 55.686C15.1799 58.9808 17.325 62.4381 20.1811 64.4059C21.5604 62.5176 20.6959 59.6241 20.2253 57.6045C19.5919 54.8852 18.7152 52.0535 17.4124 49.541C15.1406 50.7416 14.8755 53.5162 14.9964 55.686Z" fill="#F8C83C"/>
<path id="Vector_57" d="M11.1551 58.4692C14.2495 60.1886 17.3349 62.2176 20.2037 64.3766C18.4857 66.6389 15.0517 65.7368 12.923 65.0096C9.17178 63.7282 5.82746 60.3502 4.08069 56.5973C6.2954 55.4565 9.3272 57.4535 11.1551 58.4692Z" fill="#F8C83C"/>
<path id="Vector_58" d="M23.8095 63.7353C25.6667 67.1247 29.8989 69.3358 33.8844 69.8681C34.3134 67.404 31.6472 64.9644 30.1944 63.3684C28.1259 61.0961 25.9706 58.7381 23.554 56.7735C21.7435 58.8756 22.7007 61.7118 23.8095 63.7353Z" fill="#F8C83C"/>
<path id="Vector_59" d="M21.1572 68.0309C25.3788 68.4698 29.6721 69.1016 33.8913 69.8303C33.4885 72.9392 28.5548 73.4409 26.3151 73.6245C21.7228 74.0008 16.6141 72.1549 13.057 69.0472C14.8238 66.9683 18.9084 67.7971 21.1572 68.0309Z" fill="#F8C83C"/>
<path id="Vector_60" d="M29.2883 4.7741C26.454 5.58267 23.1364 7.11663 21.4974 9.94826C24.4724 9.624 27.3962 8.56546 30.2556 7.75895C33.4584 6.85545 36.8308 6.17972 39.9318 4.93261C36.5357 3.57394 32.5324 3.84854 29.2883 4.7741Z" fill="#F8C83C"/>
<path id="Vector_61" fill-rule="evenodd" clip-rule="evenodd" d="M84.122 43.4272C86.4913 28.601 79.5754 13.9548 65.7552 7.66679L65.8842 7.38354C79.845 13.7354 86.8189 28.5265 84.4289 43.4764C81.781 60.0484 68.4032 69.9747 52.0725 70.4527L52.0635 70.1416C68.2677 69.6673 81.4998 59.83 84.122 43.4272Z" fill="#F8C83C"/>
<path id="Vector_62" d="M68.9112 11.1989C71.4908 11.2578 74.5102 12.7126 76.2927 14.8259C74.8636 16.1527 72.5639 15.6622 70.9104 15.3908C68.5488 15.0036 66.0375 14.2534 63.8101 13.1916C64.7258 11.2414 67.1932 11.1599 68.9112 11.1989Z" fill="#F8C83C"/>
<path id="Vector_63" d="M70.94 8.01621C72.4684 10.3967 74.2896 12.7625 76.2708 14.846C77.9295 13.2894 76.9286 10.6991 76.2514 9.08829C75.0261 6.16947 72.0867 3.65243 69.0131 2.36456C68.1695 4.2834 70.0024 6.55512 70.94 8.01621Z" fill="#F8C83C"/>
<path id="Vector_64" d="M76.3779 17.8743C78.7937 18.733 80.869 21.1504 81.9112 23.5772C80.1738 24.3849 78.1991 23.2185 76.7545 22.442C74.7708 21.3756 72.7471 19.9042 71.1555 18.2014C72.5936 16.6833 74.7786 17.306 76.3779 17.8743Z" fill="#F8C83C"/>
<path id="Vector_65" d="M79.3057 15.4956C79.8345 18.2107 80.7206 21.0248 81.8853 23.5896C83.918 22.6311 83.8407 19.8856 83.753 18.1384C83.6046 15.1563 81.9369 11.7556 79.614 9.59442C78.1913 11.119 78.9691 13.7661 79.3057 15.4956Z" fill="#F8C83C"/>
<path id="Vector_66" d="M81.0253 26.4925C83.0387 28.0805 84.2589 31.0234 84.5413 33.6514C82.6376 33.87 81.1156 32.137 79.9832 30.9481C78.4406 29.3293 76.9805 27.2989 76.0544 25.1747C77.8692 24.1844 79.7149 25.4581 81.0253 26.4925Z" fill="#F8C83C"/>
<path id="Vector_67" d="M84.5142 25.1518C84.1543 27.8933 84.1543 30.8597 84.5129 33.6549C86.7275 33.3829 87.4627 30.7239 87.896 29.0558C88.6454 26.1764 88.1424 22.4571 86.6836 19.658C84.8599 20.6675 84.7425 23.3993 84.5142 25.1518Z" fill="#F8C83C"/>
<path id="Vector_68" d="M82.6055 35.8996C84.1984 38.2329 84.7582 41.8896 84.0424 44.8288C81.9374 44.3305 80.894 41.9474 80.0556 40.2642C78.9425 38.0273 78.0009 35.4177 77.6643 32.8573C79.9473 32.3821 81.5569 34.3624 82.6055 35.8996Z" fill="#F8C83C"/>
<path id="Vector_69" d="M86.7869 35.6637C85.5461 38.537 84.5775 41.6995 84.0112 44.8218C86.4244 45.3404 88.1618 42.8055 89.1717 41.1246C90.9684 38.1325 91.4921 33.9847 90.8343 30.4052C88.6248 30.8483 87.5427 33.9135 86.7869 35.6637Z" fill="#F8C83C"/>
<path id="Vector_70" d="M81.4908 46.0518C82.3459 48.8823 81.7526 52.7305 80.0204 55.3916C78.1179 54.1526 77.8535 51.4257 77.584 49.4705C77.2293 46.8904 77.0616 44.0322 77.5027 41.3568C79.9366 41.6675 80.9194 44.1608 81.4908 46.0518Z" fill="#F8C83C"/>
<path id="Vector_71" d="M85.7198 47.2634C83.5852 49.7138 81.6156 52.5073 79.9905 55.3732C82.1935 56.7486 84.7795 54.8695 86.3479 53.5397C89.1287 51.1808 90.9357 47.1715 91.3639 43.3916C89.0487 43.0805 87.0083 45.7852 85.7198 47.2634Z" fill="#F8C83C"/>
<path id="Vector_72" d="M77.0021 55.686C76.8189 58.9808 74.674 62.4381 71.8184 64.4059C70.4383 62.5176 71.3037 59.6243 71.7732 57.6045C72.4065 54.8852 73.2836 52.0535 74.5863 49.541C76.8589 50.7416 77.1233 53.5162 77.0021 55.686Z" fill="#F8C83C"/>
<path id="Vector_73" d="M80.8443 58.4692C77.7501 60.1886 74.6649 62.2176 71.7964 64.3766C73.5144 66.6389 76.9478 65.7368 79.076 65.0096C82.828 63.7282 86.1725 60.3502 87.9189 56.5973C85.7043 55.4565 82.672 57.4535 80.8443 58.4692Z" fill="#F8C83C"/>
<path id="Vector_74" d="M68.1904 63.7353C66.3331 67.1247 62.1012 69.3358 58.1152 69.8681C57.6862 67.404 60.3523 64.9644 61.8059 63.3684C63.8734 61.0961 66.0287 58.7381 68.4458 56.7735C70.2566 58.8756 69.2983 61.7118 68.1904 63.7353Z" fill="#F8C83C"/>
<path id="Vector_75" d="M70.8421 68.0309C66.6206 68.4698 62.3281 69.1016 58.1082 69.8303C58.5111 72.9392 63.4451 73.4409 65.6842 73.6245C70.2772 74.0008 75.3861 72.1549 78.942 69.0472C77.1763 66.9683 73.0915 67.7971 70.8421 68.0309Z" fill="#F8C83C"/>
<path id="Vector_76" d="M62.7114 4.7741C65.5451 5.58267 68.8638 7.11663 70.5018 9.94826C67.5275 9.624 64.6036 8.56546 61.7441 7.75895C58.5412 6.85545 55.1688 6.17972 52.0679 4.93261C55.464 3.57394 59.4672 3.84854 62.7114 4.7741Z" fill="#F8C83C"/>
<path id="Vector_77" d="M47.8434 3.30881L46.3891 0.0999146L44.9622 3.24909L41.6437 1.1916L43.7761 5.67275H49.0792L51.1347 1.1916L47.8434 3.30881Z" fill="#F8C83C"/>
<path id="Vector_78" d="M49.0448 6.36914H43.7333V7.15295H49.0448V6.36914Z" fill="#F8C83C"/>
<path id="Vector_79" d="M46.7686 67.0042L47.6245 69.6382H50.3941L48.1534 71.266L49.0092 73.9001L46.7686 72.2722L44.5279 73.9001L45.3838 71.266L43.1432 69.6382H45.9128L46.7686 67.0042Z" fill="#F8C83C"/>
</g>
</svg>
