<svg width="36" height="36" viewBox="0 0 36 36" fill="none" xmlns="http://www.w3.org/2000/svg">
<g id="Group">
<g id="Group_2">
<path id="Vector" d="M24.285 3H11.715C6.255 3 3 6.255 3 11.715V24.27C3 29.745 6.255 33 11.715 33H24.27C29.73 33 32.985 29.745 32.985 24.285V11.715C33 6.255 29.745 3 24.285 3ZM25.89 14.94L22.425 19.41C21.99 19.965 21.375 20.325 20.67 20.4C19.965 20.49 19.275 20.295 18.72 19.86L15.975 17.7C15.87 17.61 15.75 17.61 15.69 17.625C15.63 17.625 15.525 17.655 15.435 17.775L11.865 22.41C11.64 22.695 11.31 22.845 10.98 22.845C10.74 22.845 10.5 22.77 10.29 22.605C9.795 22.23 9.705 21.525 10.08 21.03L13.65 16.395C14.085 15.84 14.7 15.48 15.405 15.39C16.095 15.3 16.8 15.495 17.355 15.93L20.1 18.09C20.205 18.18 20.31 18.18 20.385 18.165C20.445 18.165 20.55 18.135 20.64 18.015L24.105 13.545C24.48 13.05 25.2 12.96 25.68 13.35C26.175 13.755 26.265 14.46 25.89 14.94Z" fill="#45B73B"/>
</g>
</g>
</svg>
