<svg width="509" height="599" viewBox="0 0 509 599" fill="none" xmlns="http://www.w3.org/2000/svg">
<path opacity="0.05" fill-rule="evenodd" clip-rule="evenodd" d="M41.1191 252.913C48.4298 221.114 65.8487 177.644 77.0591 144.977C88.983 110.233 100.314 74.496 112.842 38.4584C125.272 2.69849 138.071 -33.775 149.848 -70.3402C157.536 -94.211 175.607 -156.225 186.821 -175.346L429.033 -175.379C428.308 -164.538 394.708 -107.453 386.74 -93.3222L298.444 68.7353C287.197 89.199 262.356 129.777 255.449 150.653L453.329 151.299C450.142 160.68 417.524 202.806 410.617 212.339C395.761 232.845 382.452 250.98 366.776 273.057C334.366 318.7 131.247 604.858 103.258 635.942L225.327 253.472L41.1182 252.915L41.1191 252.913ZM0.000899781 282.066L185.583 282.373L19.1608 803C64.6808 747.672 156.394 614.623 202.032 551.826C232.431 509.999 507.107 130.883 509 121.771L303.825 121.911C320.604 78.9447 450.562 -139.78 478.723 -203.383L165.348 -204L0 282.068L0.000899781 282.066Z" fill="#45B73B"/>
</svg>
