<svg width="218" height="102" viewBox="0 0 218 102" fill="none" xmlns="http://www.w3.org/2000/svg">
<path d="M132.526 57.4042C133.525 58.7765 134.07 60.5148 134.07 62.5275C134.07 66.0041 132.98 68.6573 130.709 70.3955C128.438 72.1338 125.532 73.0487 121.989 73.0487H106.729V38.1915H120.627C124.351 38.1915 127.258 38.9234 129.347 40.4787C131.436 42.0341 132.435 44.5042 132.435 47.7978C132.435 50.5425 131.073 52.6467 128.438 54.2935C130.164 55.0254 131.527 56.0318 132.526 57.4042ZM114.632 51.9148H120.99C121.898 51.9148 122.625 51.6404 123.261 51.0914C123.897 50.5425 124.26 49.7191 124.26 48.6212C124.26 46.151 122.988 44.8702 120.536 44.8702H114.632V51.9148ZM124.623 65.4552C125.532 64.7233 125.895 63.6254 125.895 62.1616C125.895 60.6977 125.441 59.6914 124.533 59.0509C123.624 58.4105 122.534 58.1361 121.172 58.1361H114.632V66.553H121.353C122.625 66.553 123.715 66.1871 124.623 65.4552Z" fill="#47474A"/>
<path d="M137.34 37.0022H144.879V43.0404H137.34V37.0022ZM137.522 46.9745H144.879L144.97 72.9573H137.612V46.9745H137.522Z" fill="#47474A"/>
<path d="M169.858 47.7064C171.766 48.8958 172.674 50.7255 172.674 52.9213V73.2318C172.674 76.8913 171.584 79.636 169.404 81.6487C167.224 83.57 164.045 84.5764 160.048 84.5764C157.959 84.5764 156.143 84.3934 154.508 84.1189C152.963 83.8444 151.692 83.387 150.783 82.8381V75.9764C151.692 76.4339 153.054 76.8913 154.78 77.3488C156.506 77.8062 158.141 77.9892 159.685 77.9892C161.774 77.9892 163.318 77.5317 164.227 76.6168C165.135 75.702 165.498 74.4211 165.498 72.7743V71.219C163.863 72.7743 161.683 73.5062 159.231 73.5062C155.779 73.3232 153.054 72.1339 151.147 70.0297C149.239 67.8339 148.331 64.6318 148.331 60.4233C148.331 54.934 149.512 51.0915 151.873 48.8958C154.235 46.7 157.687 45.6022 162.228 45.6022C165.408 45.8766 167.951 46.5171 169.858 47.7064ZM157.051 65.9127C158.05 67.285 159.413 68.0169 161.048 68.0169C162.683 68.0169 164.136 67.6509 165.498 66.8276V54.6596C165.498 52.9213 164.227 52.0064 161.593 52.0064C157.596 52.0064 155.598 54.751 155.598 60.1489C155.507 62.6191 156.052 64.4488 157.051 65.9127Z" fill="#47474A"/>
<path d="M176.217 38.1915H181.667V72.9572H176.217V38.1915Z" fill="#F05E47"/>
<path d="M185.209 38.1915H196.745C207.282 38.1915 212.459 43.9553 212.459 55.5744C212.459 67.1934 207.191 72.9572 196.745 72.9572H185.209V38.1915ZM196.109 68.1998C199.742 68.1998 202.467 67.1934 204.193 65.1807C205.919 63.1679 206.827 59.9658 206.827 55.6659C206.827 51.3659 205.919 48.1638 204.193 46.151C202.467 44.1383 199.742 43.1319 196.109 43.1319H190.568V68.2913H196.109V68.1998Z" fill="#F05E47"/>
<path d="M14.4426 60.6978C15.351 62.4361 16.2593 64.0829 17.2585 65.7297C23.526 64.5403 28.431 61.2467 32.1551 56.3063C34.7893 52.8298 39.9668 56.8553 37.3326 60.3318C32.9726 66.0041 27.5226 69.8467 21.1643 71.585C21.9818 72.7743 22.8901 73.8722 23.7985 74.97C27.5226 73.5977 30.2476 72.4083 32.3368 71.3105C35.4251 69.7552 39.7851 66.8275 43.3276 66.8275C44.9626 66.8275 46.7793 67.1935 48.6868 67.8339C57.5885 70.4871 65.1276 73.9637 74.211 75.7019C75.2101 74.5126 76.2093 73.2318 77.2085 71.9509C51.9568 67.0105 33.881 53.8361 33.881 29.2257C33.881 21.0832 36.9693 11.6599 48.2326 11.6599C57.316 11.6599 60.2226 17.6981 62.6751 24.9257C67.8526 39.9299 74.5743 44.5043 90.1976 44.4128C92.196 36.5448 93.1951 28.2193 92.9226 19.3449C90.6518 17.4237 87.6543 15.6854 84.2026 14.0386C85.0201 16.6917 85.8376 19.4364 86.5643 22.364C87.6543 26.5725 81.296 28.2193 80.2968 24.0108C79.2068 19.0704 77.7535 14.679 76.3001 10.745C73.8476 9.92158 71.3043 9.18967 68.6701 8.54925C75.9368 18.5215 72.9393 33.3427 85.8376 30.8725C90.1068 30.0491 91.2876 36.5448 87.0185 37.2767C59.8593 42.4001 76.5726 6.5365 48.1418 6.5365C32.4276 6.5365 28.976 19.1619 28.976 31.5129C28.976 35.081 29.521 38.7405 29.521 41.5767C29.521 51.2745 23.6168 58.5021 14.4426 60.6978Z" fill="#47474A"/>
<path d="M37.7867 88.2359C41.3292 90.8891 45.235 93.2678 49.3225 95.4635C52.32 93.9082 57.6792 90.5231 57.8609 90.3401C56.9525 89.9742 56.2259 89.6997 55.8625 89.5167C52.5017 88.0529 49.05 86.3146 45.3259 86.0402C44.3267 85.9487 43.4184 86.0402 42.4192 86.3146C41.6017 86.5891 40.6934 86.955 39.9667 87.321C39.5125 87.504 39.1492 87.687 38.695 87.9614C38.6042 87.8699 37.8775 88.2359 37.7867 88.2359Z" fill="#F05E47"/>
<path d="M28.34 79.9104C29.6117 81.1913 30.9742 82.4721 32.3367 83.753L33.1542 83.2955C36.2425 81.7402 39.9667 79.087 43.6 79.087C45.235 79.087 47.7784 79.453 49.595 80.0934C54.9542 81.7402 59.4959 83.4785 64.6734 85.1253C65.4 84.4849 66.0359 84.0274 66.7625 83.387C67.4892 82.7466 68.5792 81.6487 68.9425 81.2828C68.3067 81.0998 62.8567 79.1785 61.585 78.7211C58.7692 77.7147 56.135 76.6168 53.3192 75.7934C50.5942 74.97 47.415 73.7807 44.5992 73.7807C41.42 73.5977 38.695 75.0615 35.8792 76.4339C33.245 77.5317 30.8834 78.9041 28.34 79.9104Z" fill="#F05E47"/>
<path d="M12.5351 14.8619C9.81012 16.2343 7.53928 17.7896 5.63178 19.3449C5.35928 28.2193 6.35845 36.6362 8.35678 44.5043C11.1726 43.0405 11.4451 40.2043 11.2634 34.898C11.0818 27.5789 10.8093 21.2661 12.5351 14.8619Z" fill="#F05E47"/>
<path d="M28.8852 8.82373C26.0693 9.55564 23.3443 10.2875 20.8918 11.2024C18.9843 15.045 18.1668 18.8875 17.8943 22.547C16.986 32.7023 21.4368 46.1511 10.446 50.817C10.9002 52.0979 11.3543 53.3787 11.8993 54.5681C33.336 48.2554 14.1701 23.6449 28.8852 8.82373Z" fill="#F05E47"/>
<path d="M88.6534 51.183L88.8351 50.7255H88.1084C80.1151 50.1766 73.6659 48.1639 68.3976 44.7788C63.7651 41.7596 60.7676 38.0086 59.1326 33.3427C58.5876 31.7874 58.1334 30.3236 57.7701 28.8597C55.7717 22.364 54.4092 17.6981 48.2326 17.6981C42.3284 17.6981 39.4217 21.5406 39.4217 29.3172C40.1484 48.8043 54.0459 61.7042 80.6601 67.6509H80.8417L81.1142 67.285L81.2959 67.0105C81.5684 66.6446 81.75 66.1871 81.9317 65.8212C81.9317 65.8212 81.9317 65.8212 81.9317 65.7297C82.2042 65.1807 82.4767 64.7233 82.7492 64.1744C82.84 63.8999 83.0217 63.7169 83.1126 63.4425C83.2034 63.168 83.3851 62.8935 83.4759 62.7106L83.6576 62.4361L83.8392 62.0701L84.0209 61.6127L83.2942 61.5212C72.2126 59.5999 62.8567 55.6659 56.2259 50.3596C48.7776 44.3213 45.2351 36.0873 46.0526 26.3895C46.2342 24.6513 47.2334 24.0108 48.1417 24.0108C49.1409 24.0108 50.3217 24.8342 50.7759 26.5725C54.5001 42.4001 61.7667 52.9213 86.2009 56.6723H86.4734L86.6551 56.2149L86.7459 56.1234L87.0184 55.4829C87.2909 54.934 87.4726 54.3851 87.6542 53.8362C87.9267 53.1957 88.1084 52.5553 88.4717 51.7319L88.5626 51.5489L88.6534 51.183Z" fill="#47474A"/>
</svg>
