<svg width="24" height="24" viewBox="0 0 24 24" fill="none" xmlns="http://www.w3.org/2000/svg">
<g id="discover">
<g id="vuesax/bold/discover">
<g id="discover_2">
<path id="Vector" d="M20.98 3.0201C20.11 2.1501 18.88 1.8101 17.69 2.1101L7.88998 4.5601C6.23998 4.9701 4.96998 6.2501 4.55998 7.8901L2.10998 17.7001C1.80998 18.8901 2.14998 20.1201 3.01998 20.9901C3.67998 21.6401 4.54998 22.0001 5.44998 22.0001C5.72998 22.0001 6.01998 21.9701 6.29998 21.8901L16.11 19.4401C17.75 19.0301 19.03 17.7601 19.44 16.1101L21.89 6.3001C22.19 5.1101 21.85 3.8801 20.98 3.0201ZM12 15.8801C9.85998 15.8801 8.11998 14.1401 8.11998 12.0001C8.11998 9.8601 9.85998 8.1201 12 8.1201C14.14 8.1201 15.88 9.8601 15.88 12.0001C15.88 14.1401 14.14 15.8801 12 15.8801Z" fill="#0F1806"/>
</g>
</g>
</g>
</svg>
