<svg width="218" height="56" viewBox="0 0 218 56" fill="none" xmlns="http://www.w3.org/2000/svg">
<g clip-path="url(#clip0_334_454)">
<path d="M44.4803 55.3472H9.454C4.24655 55.3472 0 51.0341 0 45.7522V10.2478C0 4.96587 4.24655 0.652832 9.454 0.652832H44.4803C49.6878 0.652832 53.9343 4.96587 53.9343 10.2478V45.7522C53.9343 51.0341 49.6568 55.3472 44.4803 55.3472Z" fill="#300D38"/>
<path d="M47.0219 31.0003C46.929 29.5001 46.216 27.6874 42.1555 28.875C40.0477 29.4689 38.1259 29.5001 37.289 28.6875C37.196 28.5625 37.103 28.4062 37.01 28.2812C36.669 27.6561 36.855 26.656 37.6299 25.3121C38.1879 24.3432 38.8388 24.0932 39.6137 24.0932C40.2647 24.0932 41.0086 24.2182 41.9075 24.2182C44.7282 24.1557 45.8441 22.343 45.6891 20.7178C45.6581 20.2177 45.0072 20.374 43.7673 20.0927C42.5584 19.7802 41.5665 19.9677 41.2875 18.1862C41.2256 17.6862 40.5746 16.5923 39.0868 16.3422C38.0949 16.186 35.9871 15.1858 34.4063 16.436L33.0114 15.8422C32.0815 15.6234 32.1435 16.2485 31.3066 16.5923C30.5007 16.8735 29.0128 16.1235 29.4158 17.1548C29.7568 17.9987 31.0896 19.0926 32.7325 18.5613C31.7406 23.5306 27.0291 24.687 23.0925 24.4995C17.854 24.312 13.7935 19.8114 13.9794 14.5295C14.0414 12.9981 13.5455 12.5605 13.0495 13.3731C12.9255 13.5919 12.7396 13.9669 12.6466 14.4357C12.6156 14.592 12.5536 14.7795 12.5226 14.9358C12.0886 17.1548 12.6156 21.5616 16.2422 24.437C16.2422 24.437 15.0333 25.4371 14.6304 27.3124C14.4134 28.375 14.5064 29.2501 14.5684 29.6876C14.5994 29.8752 14.6304 30.0314 14.6304 30.0314C14.9713 31.6566 11.9646 32.7818 10.6318 33.0006C10.5388 33.0006 10.4458 33.0318 10.3218 33.0318C10.1358 33.0318 9.94986 33.0318 9.79487 33.0318C9.5779 33.0318 9.36092 33.0006 9.20594 32.9693C8.40002 32.9068 7.84208 33.0318 7.31514 35.0008C6.60221 37.8137 4.52543 37.1886 4.02948 37.9699C3.22357 39.2513 4.43244 40.189 5.92028 40.2827C6.81919 40.314 7.84208 40.0952 8.586 39.3764C11.1587 37.0323 9.94986 35.9697 12.4916 36.1572C12.8326 36.1885 13.2045 36.2197 13.6695 36.2822C16.4902 36.6573 18.505 37.2511 21.2947 34.2195C21.2947 34.2195 21.5116 33.8444 21.8526 33.5944C21.9766 33.4694 22.1626 33.3756 22.3485 33.2818C22.4105 33.2193 22.7825 33.2506 22.8445 33.2506C23.9294 33.5319 26.3471 34.8445 29.0748 34.3757C30.1597 33.9694 31.1516 33.3444 31.9575 32.5318C31.9575 32.5318 32.3915 32.1255 32.6705 32.5005C33.0424 32.9068 33.3834 33.5944 33.8173 34.0632C34.8092 35.1258 34.8092 34.6883 36.886 33.8444C37.072 33.7507 37.32 33.6881 37.5679 33.5631C42.9614 31.5629 42.8374 30.9065 43.9223 33.0943C44.1082 33.5006 44.8212 33.5319 45.4721 33.2506C46.371 32.9068 47.0839 32.1567 47.0219 31.0003Z" fill="#FBA919"/>
<g opacity="0.1">
<path d="M30.1599 32.0005C28.7651 34.8759 23.7746 33.0319 23.6506 32.4381C23.6816 32.0005 24.0226 31.0317 23.6816 31.3755C23.3716 31.7193 22.3177 32.9694 21.9458 33.4695C22.0698 33.3445 22.2557 33.2507 22.4417 33.1569C22.5037 33.0944 22.8757 33.1257 22.9377 33.1257C24.0226 33.407 26.4403 34.7196 29.168 34.2508C30.2529 33.8445 31.2448 33.2194 32.0507 32.4068C32.0507 32.4068 32.4847 32.0005 32.7636 32.3756C32.7636 32.3756 31.6167 30.4378 31.1518 29.6252C30.8728 29.2502 30.8418 30.6254 30.1599 32.0005Z" fill="#414042"/>
</g>
<g opacity="0.1">
<path d="M36.8552 23.1244C36.3902 22.218 34.1585 22.8431 35.1814 23.6244C37.8471 25.5934 35.2124 25.6559 37.0102 28.3125C36.6692 27.6874 36.8552 26.6873 37.6301 25.3434C38.1881 24.3745 38.839 24.1245 39.6139 24.1245C39.6139 24.0932 37.3201 24.0307 36.8552 23.1244Z" fill="#414042"/>
</g>
<path d="M180.184 4.18457C182.881 4.18457 185.546 4.18457 188.274 4.18457C188.274 10.1541 188.274 16.1236 188.274 22.2181C188.739 21.593 189.08 20.9992 189.483 20.4991C191.095 18.5926 193.203 17.53 195.651 17.0924C198.41 16.5924 201.169 16.7486 203.773 17.8738C207.058 19.2489 209.073 21.8118 210.127 25.1872C210.747 27.1249 210.933 29.1564 210.964 31.1567C210.964 34.9384 210.964 38.7201 210.995 42.5018C210.995 43.0332 211.088 43.5957 211.212 44.127C211.429 45.0022 212.018 45.4397 212.886 45.471C213.382 45.5022 213.877 45.471 214.435 45.471C214.435 45.596 214.466 45.7523 214.466 45.9085C214.466 47.8775 214.466 49.8778 214.466 51.8468C214.466 52.0343 214.342 52.3781 214.187 52.3781C211.491 52.9094 208.825 53.0657 206.314 51.6905C204.33 50.5966 203.432 48.6901 203.091 46.5023C202.936 45.5647 202.874 44.5959 202.874 43.627C202.843 39.7828 202.874 35.9385 202.874 32.0943C202.874 30.6879 202.688 29.3127 202.13 28C201.014 25.4372 198.472 23.9683 195.558 24.1871C191.405 24.5309 188.491 27.5 188.429 31.7505C188.367 38.3451 188.398 44.9709 188.398 51.5342C188.398 51.8155 188.398 52.0343 188.398 52.3468C185.701 52.3468 183.036 52.3468 180.308 52.3468C180.184 36.3448 180.184 20.3116 180.184 4.18457Z" fill="#300D38"/>
<path d="M119.988 29.9064C118.655 24.1245 115.37 19.9364 109.852 17.7487C106.35 16.3735 102.723 16.2485 99.0965 17.0611C93.4551 18.3112 89.3016 21.4991 87.0078 26.9373C85.086 31.3754 84.931 36.0322 86.0779 40.689C87.0698 44.7208 89.2396 48.0337 92.7732 50.284C98.5076 53.9407 104.676 54.222 110.968 52.0967C113.758 51.1591 116.083 49.3151 118.16 47.1273C116.517 45.5021 114.905 43.8769 113.324 42.3767C112.27 43.1893 111.309 44.0957 110.193 44.7208C107.125 46.5648 103.808 46.6898 100.398 45.8147C97.7637 45.1583 95.7489 43.5956 94.54 41.0953C93.9511 39.8764 93.6101 38.595 93.5791 37.1261C102.537 37.1261 111.464 37.1261 120.329 37.1261C120.577 34.782 120.546 32.3755 119.988 29.9064ZM112.084 31.2504C105.947 31.2504 99.8714 31.2504 93.7961 31.2504C93.7961 30.1252 94.199 29.1251 94.757 28.2187C96.3998 25.6246 98.8485 24.2807 101.793 23.8119C104.335 23.4056 106.691 23.8744 108.829 25.3434C110.751 26.6873 111.929 28.5 112.084 30.9066C112.084 30.9691 112.084 31.0628 112.084 31.2504Z" fill="#300D38"/>
<path d="M176.216 22.4368C176.061 22.5931 175.937 22.7494 175.814 22.8744C174.264 24.4996 172.714 26.1248 171.164 27.75C166.236 22.3743 158.114 23.1244 154.302 27.625C150.83 31.7505 151.016 38.7514 154.798 42.7206C158.61 46.7524 166.328 47.2212 171.133 42.0643C172.807 43.8457 174.512 45.596 176.185 47.3774C173.52 50.284 170.358 52.253 166.514 53.0031C160.78 54.097 155.449 53.1281 150.675 49.5339C146.553 46.3773 144.259 42.158 143.732 36.9386C143.205 31.7505 144.476 27.1249 147.792 23.0932C150.551 19.7177 154.147 17.655 158.393 16.8111C162.857 15.936 167.165 16.3736 171.226 18.5613C173.117 19.5302 174.729 20.8741 176.216 22.4368Z" fill="#300D38"/>
<path d="M140.942 45.6585C140.942 48.0963 140.942 50.5341 140.942 53.0657C140.229 53.1594 139.485 53.2844 138.741 53.3782C136.478 53.5345 134.185 53.5032 132.015 52.8156C128.636 51.7217 126.777 49.2527 126.095 45.8148C125.785 44.3146 125.661 42.7831 125.661 41.2204C125.599 36.0948 125.63 31.0004 125.63 25.8748C125.63 25.656 125.63 25.406 125.63 25.0934C124.173 25.0934 122.778 25.0934 121.383 25.0934C121.383 22.5619 121.383 20.0928 121.383 17.53C122.809 17.53 124.173 17.53 125.63 17.53C125.63 13.0607 125.63 8.62262 125.63 4.18457C128.388 4.18457 131.085 4.18457 133.844 4.18457C133.844 8.59137 133.844 12.9982 133.844 17.4987C136.416 17.4987 138.896 17.4987 141.438 17.4987C141.438 20.0303 141.438 22.4994 141.438 25.0622C138.927 25.0622 136.447 25.0622 133.906 25.0622C133.906 25.281 133.875 25.4372 133.875 25.5935C133.875 30.8441 133.875 36.0635 133.906 41.3142C133.906 41.908 133.999 42.5331 134.123 43.1269C134.526 44.8459 135.704 45.8148 137.439 45.8773C138.028 45.9085 138.586 45.9085 139.175 45.8773C139.764 45.8148 140.322 45.721 140.942 45.6585Z" fill="#300D38"/>
<path d="M70.6415 42.4706C70.6415 43.0019 70.5485 43.5645 70.4245 44.0958C70.2076 44.9709 69.6186 45.4085 68.7507 45.4397C68.2548 45.471 67.7588 45.4397 67.2009 45.4397C67.2009 45.5647 67.1699 45.721 67.1699 45.8773C67.1699 47.8463 67.1699 49.8465 67.1699 51.8155C67.1699 52.003 67.2939 52.3468 67.4489 52.3468C70.1456 52.8781 72.8113 53.0344 75.322 51.6592C77.3058 50.5654 78.2047 48.6589 78.5457 46.4711C78.7007 45.5335 78.8247 43.5332 78.8247 43.5332C78.8247 34.4071 78.8247 34.2196 78.8247 25.0934C80.9944 25.0934 83.1332 25.0934 85.241 25.0934C85.241 22.5619 85.241 20.0928 85.241 17.53C84.1251 17.53 79.8785 17.53 78.8247 17.53C78.8247 16.4361 78.7627 15.4047 78.8247 14.3733C79.0416 11.4667 80.3125 10.2791 83.1642 10.2791C84.2491 10.2791 85.303 10.3728 86.4189 10.4354C86.4189 8.12257 86.4189 5.80978 86.4189 3.49699C86.3259 3.46574 86.2639 3.46574 86.2019 3.43448C83.7841 3.09069 81.3974 3.05943 79.0106 3.46574C75.446 4.05956 72.8423 5.9973 71.4784 9.49774C70.7965 11.2792 70.6105 13.1232 70.6105 14.9984C70.6105 15.8423 70.6105 16.6236 70.6105 17.53C68.6887 17.53 66.8909 17.53 65.0311 17.53C65.0311 20.0616 65.0311 22.5306 65.0311 25.0934C66.9219 25.0934 68.7197 25.0934 70.6415 25.0934C70.6415 34.2508 70.6415 42.4706 70.6415 42.4706Z" fill="#300D38"/>
<path d="M218 20.8116C218 22.0617 217.008 23.0618 215.768 23.0618C214.528 23.0618 213.536 22.093 213.536 20.8116C213.536 19.5301 214.528 18.5925 215.799 18.5925C217.008 18.5925 218 19.5614 218 20.8116ZM214.063 20.8116C214.063 21.7804 214.776 22.593 215.768 22.593C216.729 22.593 217.411 21.8117 217.411 20.8428C217.411 19.8739 216.698 19.0613 215.737 19.0613C214.807 19.0301 214.063 19.8427 214.063 20.8116ZM215.396 21.9679H214.9V19.7489C215.086 19.7177 215.396 19.6864 215.737 19.6864C216.171 19.6864 216.326 19.7489 216.481 19.8427C216.605 19.9364 216.698 20.124 216.698 20.3115C216.698 20.5928 216.512 20.749 216.233 20.8428V20.8741C216.419 20.9366 216.574 21.0928 216.636 21.4054C216.698 21.7492 216.76 21.8742 216.791 21.9367H216.264C216.202 21.8742 216.171 21.6554 216.109 21.4054C216.078 21.1866 215.954 21.0616 215.644 21.0616H215.427V21.9367H215.396V21.9679ZM215.427 20.7178H215.644C215.923 20.7178 216.14 20.624 216.14 20.374C216.14 20.1865 216.016 20.0302 215.675 20.0302C215.551 20.0302 215.458 20.0302 215.396 20.0615V20.7178H215.427Z" fill="#300D38"/>
</g>
<defs>
<clipPath id="clip0_334_454">
<rect width="218" height="54.6943" fill="white" transform="translate(0 0.652832)"/>
</clipPath>
</defs>
</svg>
