<svg width="25" height="24" viewBox="0 0 25 24" fill="none" xmlns="http://www.w3.org/2000/svg">
<g clip-path="url(#clip0_572_1772)">
<path fill-rule="evenodd" clip-rule="evenodd" d="M17.2292 2.26798C18.0074 2.27744 18.7782 2.41943 19.5081 2.68778C20.0373 2.89062 20.518 3.20135 20.9192 3.59997C21.3203 3.99858 21.633 4.47624 21.8371 5.00221C22.1072 5.7275 22.2501 6.49343 22.2596 7.26671C22.318 8.55282 22.3309 8.93837 22.3309 12.194C22.3309 15.4497 22.3186 15.8352 22.2596 17.1213C22.2501 17.8946 22.1072 18.6605 21.8371 19.3858C21.633 19.9118 21.3203 20.3894 20.9192 20.7881C20.518 21.1867 20.0373 21.4974 19.5081 21.7002C18.7782 21.9686 18.0074 22.1106 17.2292 22.1201C15.9355 22.1781 15.5475 22.1909 12.2707 22.1909C8.99383 22.1909 8.60584 22.1787 7.31216 22.1201C6.53398 22.1106 5.7632 21.9686 5.03332 21.7002C4.50402 21.4974 4.02333 21.1867 3.62219 20.7881C3.22105 20.3894 2.90835 19.9118 2.70422 19.3858C2.43418 18.6605 2.29129 17.8946 2.28176 17.1213C2.22333 15.8352 2.21048 15.4497 2.21048 12.194C2.21048 8.93837 2.22275 8.55282 2.28176 7.26671C2.29129 6.49343 2.43418 5.7275 2.70422 5.00221C2.90835 4.47624 3.22105 3.99858 3.62219 3.59997C4.02333 3.20135 4.50402 2.89062 5.03332 2.68778C5.7632 2.41943 6.53398 2.27744 7.31216 2.26798C8.60642 2.20991 8.99441 2.19714 12.2707 2.19714C15.547 2.19714 15.9349 2.20933 17.2292 2.26798ZM7.21166 0.0731606C6.19322 0.0932901 5.18559 0.284909 4.23163 0.639865C3.41329 0.946249 2.67208 1.42638 2.05972 2.04676C1.43485 2.65548 0.951266 3.39244 0.64275 4.20615C0.285545 5.1541 0.0927126 6.15539 0.0724555 7.16742C0.0140237 8.46689 0 8.88379 0 12.1934C0 15.5031 0.0140236 15.92 0.0736241 17.2206C0.0938812 18.2326 0.286714 19.2339 0.643919 20.1819C0.952093 20.9955 1.43527 21.7324 2.05972 22.3413C2.67242 22.9618 3.41404 23.4419 4.2328 23.7482C5.18676 24.1031 6.19439 24.2947 7.21282 24.3149C8.5217 24.3729 8.93949 24.388 12.2719 24.388C15.6042 24.388 16.022 24.3741 17.3309 24.3149C18.3493 24.2947 19.3569 24.1031 20.3109 23.7482C21.1258 23.4343 21.8658 22.9549 22.4835 22.3406C23.1013 21.7263 23.5833 20.9907 23.8986 20.1807C24.2558 19.2328 24.4487 18.2315 24.4689 17.2194C24.5273 15.92 24.5414 15.5031 24.5414 12.1934C24.5414 8.88379 24.5273 8.46689 24.4677 7.16625C24.4475 6.15423 24.2547 5.15294 23.8974 4.20499C23.5893 3.39139 23.1061 2.65444 22.4816 2.04559C21.8689 1.42508 21.1273 0.944938 20.3086 0.638704C19.3546 0.283747 18.347 0.0921289 17.3285 0.0719994C16.0208 0.0139354 15.6013 0 12.2707 0C8.94007 0 8.52053 0.0139353 7.21166 0.0731606Z" fill="white"/>
<path fill-rule="evenodd" clip-rule="evenodd" d="M8.76728 6.9874C7.73104 7.67544 6.92339 8.65337 6.44646 9.79753C5.96953 10.9417 5.84474 12.2007 6.08788 13.4153C6.33101 14.63 6.93115 15.7457 7.8124 16.6214C8.69366 17.4971 9.81644 18.0934 11.0388 18.3351C12.2611 18.5767 13.5281 18.4527 14.6795 17.9787C15.8309 17.5048 16.815 16.7022 17.5074 15.6725C18.1998 14.6428 18.5694 13.4322 18.5694 12.1937C18.5694 10.5331 17.9055 8.9404 16.7238 7.76612C15.542 6.59183 13.9393 5.93213 12.2681 5.93213C11.0218 5.93213 9.80352 6.29937 8.76728 6.9874ZM9.99568 15.5732C9.32304 15.1266 8.79879 14.4918 8.48921 13.7492C8.17963 13.0065 8.09863 12.1892 8.25645 11.4008C8.41427 10.6124 8.80383 9.88816 9.37586 9.31973C9.94789 8.7513 10.6767 8.3642 11.4701 8.20737C12.2635 8.05054 13.086 8.13103 13.8333 8.43866C14.5807 8.74629 15.2195 9.26724 15.669 9.93564C16.1184 10.604 16.3583 11.3899 16.3583 12.1937C16.3583 13.2717 15.9274 14.3055 15.1603 15.0678C14.3932 15.83 13.3529 16.2582 12.2681 16.2582C11.4591 16.2582 10.6683 16.0198 9.99568 15.5732Z" fill="white"/>
<path fill-rule="evenodd" clip-rule="evenodd" d="M18.8199 7.14762C18.0067 7.14762 17.3474 6.49251 17.3474 5.6844C17.3474 4.87629 18.0067 4.22119 18.8199 4.22119C19.6331 4.22119 20.2924 4.87629 20.2924 5.6844C20.2924 6.49251 19.6331 7.14762 18.8199 7.14762Z" fill="white"/>
</g>
<defs>
<clipPath id="clip0_572_1772">
<rect width="24.9431" height="24" fill="white"/>
</clipPath>
</defs>
</svg>
