<svg width="218" height="54" viewBox="0 0 218 54" fill="none" xmlns="http://www.w3.org/2000/svg">
<g clip-path="url(#clip0_334_468)">
<path d="M53.6285 0.09021L31.5336 15.375L36.2529 18.658L48.2657 10.316V43.6842L28.1014 29.6911H42.9028L0 0.09021V53.91L22.095 38.6251L17.3756 35.3421L5.36285 43.6842V10.316L25.5272 24.3091H10.7257L53.6285 53.91V0.09021Z" fill="#660CD7"/>
<path d="M88.0045 40.4549V22.9635L80.4429 35.4497H79.853L72.2914 23.0173V40.4549H67.0358V13.545H72.4523L80.1748 26.2465L87.8436 13.545H93.2601V40.4549H88.0045Z" fill="#070040"/>
<path fill-rule="evenodd" clip-rule="evenodd" d="M111.494 34.5347L115.462 36.8489C113.639 39.4861 110.797 40.9392 107.096 40.9392C100.661 40.9392 96.5851 36.526 96.5851 30.7673C96.5851 25.0624 100.661 20.5953 106.721 20.5953C112.406 20.5953 116.428 25.1162 116.428 30.7673C116.428 31.5207 116.374 32.1666 116.213 32.8124H101.787C102.538 35.3958 104.629 36.4722 107.204 36.4722C109.134 36.4722 110.636 35.6649 111.494 34.5347ZM106.721 25.17C104.093 25.17 102.27 26.5693 101.68 29.045H111.494C110.904 26.3002 108.812 25.17 106.721 25.17Z" fill="#070040"/>
<path fill-rule="evenodd" clip-rule="evenodd" d="M138.844 40.4549H133.91V38.1945C132.516 39.9705 130.478 40.9931 127.69 40.9931C122.541 40.9931 118.358 36.5799 118.358 30.8212C118.358 25.1163 122.595 20.6493 127.69 20.6493C130.478 20.6493 132.516 21.6718 133.91 23.4479V13.545H138.844V40.4549ZM128.601 25.3854C125.544 25.3854 123.292 27.592 123.292 30.8212C123.292 34.0504 125.544 36.257 128.601 36.257C131.658 36.257 133.91 34.0504 133.91 30.8212C133.91 27.592 131.658 25.3854 128.601 25.3854Z" fill="#070040"/>
<path fill-rule="evenodd" clip-rule="evenodd" d="M162.494 40.4548H157.561V38.1944C156.166 39.9166 154.128 40.993 151.34 40.993C146.245 40.993 142.008 36.5798 142.008 30.8211C142.008 25.1162 146.245 20.6492 151.34 20.6492C154.128 20.6492 156.22 21.7256 157.561 23.4478V21.1874H162.494V21.2412V40.4548ZM152.251 25.3853C149.248 25.3853 146.942 27.5919 146.942 30.8211C146.942 34.0503 149.195 36.2569 152.251 36.2569C155.255 36.2569 157.561 34.0503 157.561 30.8211C157.561 27.5919 155.308 25.3853 152.251 25.3853Z" fill="#070040"/>
<path fill-rule="evenodd" clip-rule="evenodd" d="M177.725 40.9931C174.936 40.9931 172.899 39.9705 171.504 38.1945V40.4549H166.57V13.545H171.504V23.5017C172.899 21.7256 174.936 20.7031 177.725 20.7031C182.873 20.7031 187.056 25.1163 187.056 30.8212C187.056 36.5261 182.82 40.9931 177.725 40.9931ZM176.813 25.3854C173.81 25.3854 171.504 27.592 171.504 30.8212C171.504 34.0504 173.757 36.257 176.813 36.257C179.87 36.257 182.123 34.0504 182.123 30.8212C182.123 27.592 179.87 25.3854 176.813 25.3854Z" fill="#070040"/>
<path d="M195.101 12.361V40.4549H190.167V12.361H195.101Z" fill="#070040"/>
<path fill-rule="evenodd" clip-rule="evenodd" d="M212.852 34.5347L216.82 36.8489C214.997 39.4861 212.154 40.9392 208.454 40.9392C202.019 40.9392 197.943 36.526 197.943 30.7673C197.943 25.0624 202.019 20.5953 208.079 20.5953C213.763 20.5953 217.785 25.1162 217.785 30.7673C217.785 31.5207 217.732 32.1666 217.571 32.8124H203.145C203.842 35.3958 205.987 36.4722 208.561 36.4722C210.492 36.4722 211.994 35.6649 212.852 34.5347ZM208.079 25.17C205.451 25.17 203.628 26.5693 203.038 29.045H212.852C212.262 26.3002 210.17 25.17 208.079 25.17Z" fill="#070040"/>
</g>
<defs>
<clipPath id="clip0_334_468">
<rect width="218" height="53.8197" fill="white" transform="translate(0 0.09021)"/>
</clipPath>
</defs>
</svg>
