<svg width="218" height="38" viewBox="0 0 218 38" fill="none" xmlns="http://www.w3.org/2000/svg">
<g clip-path="url(#clip0_334_480)">
<path d="M22.6015 17.0595H13.7051L15.6287 8.24662H23.8838C26.6088 8.24662 28.2118 9.70196 28.2118 11.885C28.2118 14.634 26.2081 17.0595 22.6015 17.0595ZM37.4287 10.9148C37.4287 4.85082 32.7801 0.403931 24.6853 0.403931H8.09485L0 37.5961H9.21691L12.0221 24.8214H17.3919L22.7618 37.5961H31.9787L26.2882 24.1746C33.1007 23.1235 37.4287 17.5447 37.4287 10.9148Z" fill="#020303"/>
<path d="M53.2979 23.6894L61.2325 9.94452L64.1979 23.6894H53.2979ZM57.4655 0.403931L36.0663 37.5961H45.2832L48.8898 31.4513H65.9611L67.3236 37.5961H76.5406L68.3656 0.403931H57.4655ZM102.829 17.0595H94.6538L96.5773 8.24662H103.71C106.516 8.24662 108.199 9.62111 108.199 11.885C108.199 14.634 106.115 17.0595 102.829 17.0595ZM104.672 0.403931H89.0435L80.9486 37.5961H90.1656L92.9707 24.8214H103.23C112.046 24.8214 117.335 18.1106 117.335 11.0765C117.335 4.85082 112.446 0.403931 104.672 0.403931Z" fill="#020303"/>
<path d="M135.128 0.403931H125.911L117.816 37.5961H127.033L135.128 0.403931Z" fill="#020303"/>
<path d="M201.169 0.403931H172.076C172.557 0.889046 172.957 1.29331 173.358 1.85928C176.644 5.82105 178.327 10.8339 178.327 16.3319C178.327 24.8214 174.801 32.5024 169.11 37.6769H186.903L195.399 16.4936H184.819L186.582 8.24662H207.581L196.521 37.5961H200.849C210.947 37.6769 217.76 29.1874 217.76 19C217.76 8.81259 211.268 0.403931 201.169 0.403931Z" fill="#E95F26"/>
<path d="M149.875 29.8342H144.746L149.474 8.16577H154.283C159.573 8.16577 162.538 12.1275 162.538 17.1404C162.538 23.8511 157.81 29.8342 149.875 29.8342ZM168.309 6.46787C165.183 2.58695 159.974 0.403931 153.802 0.403931H142.021L133.846 37.5961H148.753C154.524 37.5961 158.932 36.3024 162.378 34.2003C169.271 29.9959 171.675 22.5575 171.675 16.251C171.675 12.3701 170.393 9.05515 168.309 6.46787Z" fill="#020303"/>
</g>
<defs>
<clipPath id="clip0_334_480">
<rect width="218" height="37.1921" fill="white" transform="translate(0 0.403931)"/>
</clipPath>
</defs>
</svg>
