<svg width="21" height="16" viewBox="0 0 21 16" fill="none" xmlns="http://www.w3.org/2000/svg">
<g clip-path="url(#clip0_572_1786)">
<path d="M18.2652 2.55644C19.1086 2.05362 19.7833 1.25748 20.0784 0.29374C19.2772 0.75466 18.3917 1.08987 17.4219 1.29938C16.6629 0.503249 15.5665 0.000427246 14.3858 0.000427246C12.1088 0.000427246 10.2534 1.84411 10.2534 4.10681C10.2534 4.44202 10.2956 4.73533 10.3799 5.02865C6.9644 4.86104 3.88618 3.22687 1.81999 0.712759C1.48265 1.34129 1.27181 2.01172 1.27181 2.76595C1.27181 4.19061 1.98866 5.44767 3.12717 6.2019C2.4525 6.16 1.81999 5.99239 1.22965 5.69908V5.74098C1.22965 7.75227 2.66333 9.42834 4.56086 9.80546C4.22352 9.88926 3.84402 9.93116 3.46451 9.93116C3.21151 9.93116 2.91634 9.88926 2.66333 9.84736C3.21151 11.4815 4.72953 12.6967 6.54272 12.6967C5.10904 13.7861 3.33801 14.4566 1.39831 14.4566C1.06098 14.4566 0.723638 14.4566 0.428467 14.4147C2.28383 15.5879 4.43436 16.2583 6.79573 16.2583C14.428 16.2583 18.6026 9.97306 18.6026 4.52583C18.6026 4.35822 18.6026 4.14871 18.6026 3.9811C19.4037 3.43638 20.1206 2.72405 20.6688 1.88601C19.9098 2.22122 19.1086 2.43073 18.2652 2.55644Z" fill="white"/>
</g>
<defs>
<clipPath id="clip0_572_1786">
<rect width="20.5716" height="15.9992" fill="white" transform="translate(0.428467 0.000427246)"/>
</clipPath>
</defs>
</svg>
